<svg width="54" height="37" viewBox="0 0 54 37" fill="none" xmlns="http://www.w3.org/2000/svg">
<rect width="54" height="37" rx="3" fill="#E3E3E3"/>
<path d="M30.7125 21.5812V25.2402H24.15V28.8086H17.1719V32.0258H38.8281V21.5812H30.7125Z" fill="#9C9C9C"/>
<path d="M18.8234 27.2567C19.3484 27.6305 20.0484 27.5172 20.4094 26.9735L22.9906 23.1106C23.0781 22.9746 23.1437 22.8047 23.1766 22.6461L23.9422 18.9531L26.4578 19.0324L26.3375 24.0281C26.3266 24.6172 26.775 25.1156 27.3547 25.127C27.3656 25.127 27.3766 25.127 27.3766 25.127C27.9344 25.127 28.4047 24.6625 28.4156 24.0735L28.5578 18.0129C28.5687 17.4238 28.1203 16.9254 27.5516 16.9141L25.6922 16.8574L26.4797 12.5414L27.0484 14.2067C27.1141 14.4219 27.2781 14.6031 27.475 14.6938L30.8437 16.3363C31.2484 16.5289 31.7297 16.359 31.9047 15.9399C32.0797 15.5207 31.9047 15.0223 31.5 14.841L28.4266 13.3457L27.6172 11.0461C27.3 10.1285 26.5344 9.42618 25.5391 9.24493L24.7953 9.09767C24.0078 8.96173 23.2312 9.18829 22.6406 9.66408L20.0922 11.5106C19.9062 11.6465 19.7969 11.8391 19.7531 12.077L19.0969 15.8719C19.0094 16.3137 19.3047 16.7442 19.7312 16.8348C20.1578 16.9254 20.5953 16.6195 20.6609 16.1777L21.2516 12.7113L22.7719 11.6125L21 22.0117L18.5609 25.6254C18.1891 26.1578 18.3094 26.8828 18.8234 27.2567Z" fill="#9C9C9C"/>
<path d="M25.4297 8.72383C26.4324 8.72383 27.2453 7.88191 27.2453 6.84336C27.2453 5.80481 26.4324 4.96289 25.4297 4.96289C24.427 4.96289 23.6141 5.80481 23.6141 6.84336C23.6141 7.88191 24.427 8.72383 25.4297 8.72383Z" fill="#9C9C9C"/>
</svg>
