<svg width="54" height="37" viewBox="0 0 54 37" fill="none" xmlns="http://www.w3.org/2000/svg">
<rect width="54" height="37" rx="3" fill="#E3E3E3"/>
<path d="M17.816 27.164V12.204H17.112C16.5475 12.2144 16.0097 12.4462 15.6146 12.8496C15.2195 13.2529 14.9988 13.7954 15 14.36V29.936C14.9988 30.5006 15.2195 31.0431 15.6146 31.4464C16.0097 31.8497 16.5475 32.0816 17.112 32.092H32.776C33.3405 32.0816 33.8783 31.8497 34.2734 31.4464C34.6685 31.0431 34.8893 30.5006 34.888 29.936V29.32H19.928C19.3635 29.3096 18.8257 29.0777 18.4306 28.6744C18.0355 28.2711 17.8148 27.7286 17.816 27.164Z" fill="#9C9C9C"/>
<path d="M25.692 10.312H33.48C33.5727 10.3132 33.6648 10.2958 33.7508 10.2608C33.8367 10.2259 33.9148 10.174 33.9804 10.1084C34.046 10.0428 34.0978 9.96475 34.1328 9.8788C34.1677 9.79285 34.1851 9.70078 34.184 9.608V8.156C34.1852 7.59139 33.9645 7.04892 33.5694 6.64559C33.1743 6.24226 32.6365 6.01039 32.072 6H27.1C26.8192 6.00113 26.5415 6.05799 26.2829 6.16728C26.0243 6.27658 25.7899 6.43613 25.5935 6.63669C25.397 6.83725 25.2423 7.07482 25.1384 7.33563C25.0344 7.59644 24.9833 7.87528 24.988 8.156V9.608C24.9924 9.79331 25.068 9.96979 25.1991 10.1009C25.3302 10.2319 25.5067 10.3075 25.692 10.312Z" fill="#9C9C9C"/>
<path d="M37.396 7.76002H36.692C36.6448 7.75601 36.5972 7.76236 36.5527 7.77863C36.5081 7.7949 36.4677 7.82069 36.4342 7.85422C36.4007 7.88774 36.3749 7.92818 36.3586 7.97271C36.3423 8.01724 36.336 8.06478 36.34 8.11202V9.56402C36.3435 10.3277 36.0447 11.0617 35.5089 11.6058C34.973 12.1499 34.2436 12.4599 33.48 12.468H25.692C24.9309 12.452 24.2061 12.1395 23.6719 11.5971C23.1378 11.0547 22.8364 10.3253 22.832 9.56402V8.11202C22.836 8.06478 22.8297 8.01724 22.8134 7.97271C22.7971 7.92818 22.7713 7.88774 22.7378 7.85422C22.7043 7.82069 22.6638 7.7949 22.6193 7.77863C22.5748 7.76236 22.5272 7.75601 22.48 7.76002H21.776C21.4952 7.76115 21.2175 7.81801 20.9589 7.9273C20.7003 8.0366 20.466 8.19615 20.2695 8.39671C20.073 8.59727 19.9183 8.83484 19.8144 9.09565C19.7104 9.35645 19.6593 9.6353 19.664 9.91602V25.448C19.6627 26.0126 19.8835 26.5551 20.2786 26.9584C20.6737 27.3618 21.2115 27.5936 21.776 27.604H37.396C37.6767 27.6029 37.9545 27.546 38.2131 27.4367C38.4717 27.3274 38.706 27.1679 38.9025 26.9673C39.099 26.7668 39.2536 26.5292 39.3576 26.2684C39.4615 26.0076 39.5127 25.7287 39.508 25.448V9.96002C39.5168 9.67612 39.4688 9.39331 39.3669 9.12819C39.265 8.86307 39.1112 8.62096 38.9145 8.41605C38.7177 8.21115 38.4821 8.04758 38.2214 7.93493C37.9606 7.82228 37.68 7.76281 37.396 7.76002ZM32.072 21.444C32.0732 21.5368 32.0558 21.6289 32.0208 21.7148C31.9858 21.8008 31.934 21.8788 31.8684 21.9445C31.8028 22.0101 31.7247 22.0619 31.6388 22.0968C31.5528 22.1318 31.4608 22.1492 31.368 22.148H24.24C24.1472 22.1492 24.0551 22.1318 23.9692 22.0968C23.8832 22.0619 23.8052 22.0101 23.7396 21.9445C23.6739 21.8788 23.6221 21.8008 23.5872 21.7148C23.5522 21.6289 23.5348 21.5368 23.536 21.444V20.74C23.5348 20.6472 23.5522 20.5552 23.5872 20.4692C23.6221 20.3833 23.6739 20.3052 23.7396 20.2396C23.8052 20.174 23.8832 20.1222 23.9692 20.0872C24.0551 20.0522 24.1472 20.0348 24.24 20.036H31.368C31.4608 20.0348 31.5528 20.0522 31.6388 20.0872C31.7247 20.1222 31.8028 20.174 31.8684 20.2396C31.934 20.3052 31.9858 20.3833 32.0208 20.4692C32.0558 20.5552 32.0732 20.6472 32.072 20.74V21.444ZM35.636 17.836C35.6372 17.9288 35.6198 18.0209 35.5848 18.1068C35.5498 18.1928 35.498 18.2708 35.4324 18.3365C35.3668 18.4021 35.2887 18.4539 35.2028 18.4888C35.1168 18.5238 35.0248 18.5412 34.932 18.54H24.24C24.1472 18.5412 24.0551 18.5238 23.9692 18.4888C23.8832 18.4539 23.8052 18.4021 23.7396 18.3365C23.6739 18.2708 23.6221 18.1928 23.5872 18.1068C23.5522 18.0209 23.5348 17.9288 23.536 17.836V17.132C23.5348 17.0392 23.5522 16.9472 23.5872 16.8612C23.6221 16.7753 23.6739 16.6972 23.7396 16.6316C23.8052 16.566 23.8832 16.5142 23.9692 16.4792C24.0551 16.4442 24.1472 16.4268 24.24 16.428H34.932C35.0248 16.4268 35.1168 16.4442 35.2028 16.4792C35.2887 16.5142 35.3668 16.566 35.4324 16.6316C35.498 16.6972 35.5498 16.7753 35.5848 16.8612C35.6198 16.9472 35.6372 17.0392 35.636 17.132V17.836Z" fill="#9C9C9C"/>
</svg>
