<svg id="Layer_1" data-name="Layer 1" xmlns="http://www.w3.org/2000/svg" viewBox="0 0 28.5 28.5"><defs><style>.cls-1{fill:#b88068;}</style></defs><title>calendar</title><path class="cls-1" d="M23.38,29.25H6.79c-1.76,0-2.73,0-3.64-.46a4.21,4.21,0,0,1-1.85-1.85C.83,26,.83,25.06.83,23.3V9.56c0-1.76,0-2.73.46-3.64A4.21,4.21,0,0,1,3.15,4.07a7.29,7.29,0,0,1,3.41-.46V2.12a1.37,1.37,0,1,1,2.75,0V3.61H20.86V2.12a1.37,1.37,0,1,1,2.75,0V3.61A7.29,7.29,0,0,1,27,4.07a4.21,4.21,0,0,1,1.85,1.85c.46.91.46,1.88.46,3.64V23.3c0,1.76,0,2.73-.46,3.64A4.21,4.21,0,0,1,27,28.79C26.12,29.25,25.14,29.25,23.38,29.25ZM3.58,12.08V23.3a7.88,7.88,0,0,0,.16,2.39,1.48,1.48,0,0,0,.65.65,7.87,7.87,0,0,0,2.39.16h16.6a7.87,7.87,0,0,0,2.39-.16,1.48,1.48,0,0,0,.65-.65,7.87,7.87,0,0,0,.16-2.39V12.08Zm0-2.75h23a6.85,6.85,0,0,0-.16-2.16,1.48,1.48,0,0,0-.65-.65,7.87,7.87,0,0,0-2.39-.16H6.79a7.87,7.87,0,0,0-2.39.16,1.48,1.48,0,0,0-.65.65A6.85,6.85,0,0,0,3.58,9.33ZM23.67,23.53H20.81a1.37,1.37,0,0,1,0-2.75h2.86a1.37,1.37,0,0,1,0,2.75Zm-7.15,0H13.65a1.37,1.37,0,1,1,0-2.75h2.86a1.37,1.37,0,0,1,0,2.75Zm-7.15,0H6.5a1.37,1.37,0,0,1,0-2.75H9.36a1.37,1.37,0,0,1,0,2.75ZM23.67,17.8H20.81a1.37,1.37,0,0,1,0-2.75h2.86a1.37,1.37,0,0,1,0,2.75Zm-7.15,0H13.65a1.37,1.37,0,0,1,0-2.75h2.86a1.37,1.37,0,0,1,0,2.75Zm-7.15,0H6.5a1.37,1.37,0,0,1,0-2.75H9.36a1.37,1.37,0,0,1,0,2.75Z" transform="translate(-0.83 -0.75)"/></svg>