<svg id="Layer_1" data-name="Layer 1" xmlns="http://www.w3.org/2000/svg" viewBox="0 0 23.93 19.59"><defs><style>.cls-1{fill:#767676;}</style></defs><title>cargaXL</title><path class="cls-1" d="M20.58,20.17h-14a7.24,7.24,0,0,1-2.57-.25A3.69,3.69,0,0,1,2,18a5.57,5.57,0,0,1-.32-2.46A5.56,5.56,0,0,1,2,13.1a3.69,3.69,0,0,1,2.1-1.9A7.26,7.26,0,0,1,6.63,11H9.42a1.5,1.5,0,1,1,0,3H6.63A8.31,8.31,0,0,0,5.1,14a.73.73,0,0,0-.42.35,9,9,0,0,0,0,1.2,8,8,0,0,0,0,1.21.73.73,0,0,0,.41.33,8.32,8.32,0,0,0,1.53.06h14a8.2,8.2,0,0,0,1.53-.07.73.73,0,0,0,.42-.35,9,9,0,0,0,0-1.2,8,8,0,0,0,0-1.21.73.73,0,0,0-.41-.33A8.24,8.24,0,0,0,20.58,14H17.79a1.5,1.5,0,0,1,0-3h2.79a7.25,7.25,0,0,1,2.57.25,3.69,3.69,0,0,1,2.1,1.9,5.58,5.58,0,0,1,.32,2.46A5.58,5.58,0,0,1,25.25,18a3.7,3.7,0,0,1-2.1,1.9A7.25,7.25,0,0,1,20.58,20.17Zm-1.15-3.11a1.5,1.5,0,0,1,0-3h0a1.5,1.5,0,0,1,0,3ZM13.61,15a1.5,1.5,0,0,1-1.5-1.5V5.43l-1,.88a1.5,1.5,0,1,1-2-2.24L12.59,1A1.51,1.51,0,0,1,13,.72l.08,0a1.49,1.49,0,0,1,.43-.1h.26a1.5,1.5,0,0,1,.39.09l.11,0a1.48,1.48,0,0,1,.37.25l3.47,3.1a1.5,1.5,0,0,1-2,2.24l-1-.88v8.06A1.5,1.5,0,0,1,13.61,15Z" transform="translate(-1.64 -0.58)"/></svg>