<svg id="Layer_1" data-name="Layer 1" xmlns="http://www.w3.org/2000/svg" viewBox="0 0 26.33 22.54"><defs><style>.cls-1{fill:#767676;}</style></defs><title>charts</title><path class="cls-1" d="M24.42,2.67A2.32,2.32,0,0,0,23,6.2l-4.37,6.13a2.31,2.31,0,0,0-3,.88l-4.87-1.11a2.33,2.33,0,1,0-4,2.18L3.61,20.48a2.34,2.34,0,1,0,2,1.76,2.33,2.33,0,0,0-.38-.81l3.23-6.27A2.26,2.26,0,0,0,10.64,14L15.41,15a2.34,2.34,0,0,0,4.54-1.14s0-.08,0-.12l4.66-6.53a2.34,2.34,0,1,0-.15-4.58Z" transform="translate(-0.99 -2.6)"/></svg>