<svg width="30" height="31" viewBox="0 0 30 31" fill="none" xmlns="http://www.w3.org/2000/svg">
<g clip-path="url(#clip0_126_4249)">
<path d="M4.125 16.9725H11.6875L13.75 19.7225L16.5 11.4725L19.25 16.9725H23.375M8.525 25.2225H24.475C26.0151 25.2225 26.7853 25.2225 27.3735 24.9228C27.8909 24.6592 28.3117 24.2384 28.5752 23.721C28.875 23.1328 28.875 22.3626 28.875 20.8225V10.3725C28.875 8.83237 28.875 8.06228 28.5752 7.47403C28.3117 6.95658 27.8909 6.53588 27.3735 6.27224C26.7853 5.9725 26.0151 5.9725 24.475 5.9725H8.525C6.98486 5.9725 6.21478 5.9725 5.62653 6.27224C5.10907 6.53588 4.68838 6.95658 4.42474 7.47403C4.125 8.06228 4.125 8.83235 4.125 10.3725V20.8225C4.125 22.3626 4.125 23.1328 4.42474 23.721C4.68838 24.2384 5.10907 24.6592 5.62653 24.9228C6.21478 25.2225 6.98485 25.2225 8.525 25.2225Z" stroke="#B98168" stroke-width="2" stroke-linecap="round" stroke-linejoin="round"/>
</g>
<defs>
<clipPath id="clip0_126_4249">
<rect width="29.2716" height="29.2716" fill="white" transform="translate(0.589355 0.958618)"/>
</clipPath>
</defs>
</svg>
