<svg id="Layer_1" data-name="Layer 1" xmlns="http://www.w3.org/2000/svg" viewBox="0 0 26.75 21.25"><defs><style>.cls-1{fill:#767676;}</style></defs><title>monitorXL</title><path class="cls-1" d="M22,25.22H6a7.35,7.35,0,0,1-3.35-.41A3.72,3.72,0,0,1,1,23.17a7.36,7.36,0,0,1-.41-3.35V9.37A7.36,7.36,0,0,1,1,6,3.72,3.72,0,0,1,2.67,4.38,7.36,7.36,0,0,1,6,4H22a7.35,7.35,0,0,1,3.35.41A3.71,3.71,0,0,1,27,6a7.35,7.35,0,0,1,.41,3.35V19.82A7.35,7.35,0,0,1,27,23.17a3.72,3.72,0,0,1-1.64,1.64A7.35,7.35,0,0,1,22,25.22ZM2.63,17v2.85a7,7,0,0,0,.19,2.44,1.74,1.74,0,0,0,.77.77A7,7,0,0,0,6,23.22H22A7,7,0,0,0,24.42,23a1.74,1.74,0,0,0,.77-.77,7,7,0,0,0,.19-2.44V9.37a7,7,0,0,0-.19-2.44,1.73,1.73,0,0,0-.76-.76A7,7,0,0,0,22,6H6a7,7,0,0,0-2.44.19,1.73,1.73,0,0,0-.76.76,7,7,0,0,0-.19,2.44V15H9.19a1,1,0,0,1,.8.4l.92,1.22,2.15-6.44a1,1,0,0,1,.88-.68,1,1,0,0,1,1,.55L17.37,15h3.51a1,1,0,0,1,0,2H16.75a1,1,0,0,1-.89-.55l-1.67-3.34-2,6a1,1,0,0,1-1.75.28L8.69,17Z" transform="translate(-0.63 -3.97)"/></svg>