<svg width="21" height="22" viewBox="0 0 21 22" fill="none" xmlns="http://www.w3.org/2000/svg">
<g clip-path="url(#clip0_126_4255)">
<path d="M8.53887 11.2269H6.16637V2.1162C6.16637 1.01173 4.53668 1.01173 4.53668 2.1162V11.2269H2.16387C1.39949 11.2269 0.760742 11.9875 0.760742 12.8987C0.760742 13.8106 1.39918 14.5715 2.16387 14.5715H4.53668V20.147C4.53668 21.2511 6.16637 21.2511 6.16637 20.147V14.5715H8.53887C9.30418 14.5715 9.9423 13.8109 9.9423 12.8987C9.9423 11.9872 9.30418 11.2269 8.53887 11.2269Z" fill="#BD8971"/>
<path d="M15.6792 18.9608H11.8145C10.6123 18.9608 10.6123 20.9749 11.8145 20.9749H15.6792C16.8817 20.9749 16.8817 18.9608 15.6792 18.9608Z" fill="#BD8971"/>
<path d="M16.2651 15.4263H11.8145C10.6123 15.4263 10.6123 17.4406 11.8145 17.4406H16.2651C17.4676 17.4406 17.4676 15.4263 16.2651 15.4263Z" fill="#BD8971"/>
<path d="M16.851 11.8917H11.8145C10.6123 11.8917 10.6123 13.9057 11.8145 13.9057H16.851C18.0535 13.9057 18.0535 11.8917 16.851 11.8917Z" fill="#BD8971"/>
<path d="M17.437 8.35714H11.8145C10.6123 8.35714 10.6123 10.3712 11.8145 10.3712H17.437C18.6395 10.3712 18.6395 8.35714 17.437 8.35714ZM17.437 9.71492H11.8145C11.5739 9.71492 11.5379 9.49508 11.5379 9.36449C11.5379 9.23356 11.5739 9.01372 11.8145 9.01372H17.437C17.6779 9.01372 17.7135 9.23356 17.7135 9.36449C17.7135 9.49508 17.6779 9.71492 17.437 9.71492Z" fill="#BD8971"/>
<path d="M18.0229 4.82291H11.8145C10.6123 4.82291 10.6123 6.83694 11.8145 6.83694H18.0229C19.2254 6.83694 19.2254 4.82291 18.0229 4.82291ZM18.0229 6.18069H11.8145C11.5739 6.18069 11.5379 5.96084 11.5379 5.83025C11.5379 5.69933 11.5739 5.47948 11.8145 5.47948H18.0229C18.2639 5.47948 18.2995 5.69933 18.2995 5.83025C18.2995 5.96084 18.2639 6.18069 18.0229 6.18069Z" fill="#BD8971"/>
<path d="M18.6089 1.28802H11.8145C10.6123 1.28802 10.6123 3.30205 11.8145 3.30205H18.6089C19.8114 3.30205 19.8114 1.28802 18.6089 1.28802ZM18.6089 2.6458H11.8145C11.5739 2.6458 11.5379 2.42595 11.5379 2.29503C11.5379 2.16444 11.5739 1.94459 11.8145 1.94459H18.6089C18.8498 1.94459 18.8854 2.16444 18.8854 2.29503C18.8854 2.42595 18.8498 2.6458 18.6089 2.6458Z" fill="#BD8971"/>
</g>
<defs>
<clipPath id="clip0_126_4255">
<rect width="20" height="21" fill="white" transform="translate(0.135742 0.631437)"/>
</clipPath>
</defs>
</svg>
