<svg width="30" height="30" viewBox="0 0 30 30" fill="none" xmlns="http://www.w3.org/2000/svg">
<path fill-rule="evenodd" clip-rule="evenodd" d="M13.1357 4.94626V6.44626H1.63574C1.23774 6.44626 0.856242 6.60426 0.575242 6.88576C0.293742 7.16676 0.135742 7.54826 0.135742 7.94626C0.135742 9.20076 0.135742 12.2368 0.135742 14.6963C0.135742 14.9723 0.359742 15.1963 0.635742 15.1963C0.911742 15.1963 1.13574 14.9723 1.13574 14.6963V7.94626C1.13574 7.81376 1.18824 7.68626 1.28224 7.59276C1.37574 7.49876 1.50324 7.44626 1.63574 7.44626H27.6357C27.7682 7.44626 27.8957 7.49876 27.9892 7.59276C28.0832 7.68626 28.1357 7.81376 28.1357 7.94626V20.4463H20.8797C20.9462 18.7638 20.3382 17.0598 19.0552 15.7768C18.3622 15.0838 17.5462 14.5878 16.6777 14.2888C17.5602 13.6528 18.1357 12.6163 18.1357 11.4463C18.1357 9.51476 16.5672 7.94626 14.6357 7.94626C12.7042 7.94626 11.1357 9.51476 11.1357 11.4463C11.1357 12.6163 11.7112 13.6528 12.5937 14.2888C11.7252 14.5878 10.9092 15.0838 10.2162 15.7768C8.93324 17.0598 8.32524 18.7638 8.39174 20.4463H1.13574V16.4463C1.13574 16.1703 0.911742 15.9463 0.635742 15.9463C0.359742 15.9463 0.135742 16.1703 0.135742 16.4463V22.9463C0.135742 23.3443 0.293742 23.7258 0.575242 24.0068C0.856242 24.2883 1.23774 24.4463 1.63574 24.4463H3.63574C3.91174 24.4463 4.13574 24.2223 4.13574 23.9463C4.13574 23.6703 3.91174 23.4463 3.63574 23.4463H1.63574C1.50324 23.4463 1.37574 23.3938 1.28224 23.2998C1.18824 23.2063 1.13574 23.0788 1.13574 22.9463V21.4463H28.1357V22.9463C28.1357 23.0788 28.0832 23.2063 27.9892 23.2998C27.8957 23.3938 27.7682 23.4463 27.6357 23.4463H5.63574C5.35974 23.4463 5.13574 23.6703 5.13574 23.9463C5.13574 24.2223 5.35974 24.4463 5.63574 24.4463H11.9387C11.8587 25.7873 11.5112 27.5198 10.2302 28.4463H9.38574C9.10974 28.4463 8.88574 28.6703 8.88574 28.9463C8.88574 29.2223 9.10974 29.4463 9.38574 29.4463H19.8857C20.1617 29.4463 20.3857 29.2223 20.3857 28.9463C20.3857 28.6703 20.1617 28.4463 19.8857 28.4463H19.0412C17.7602 27.5193 17.4127 25.7873 17.3327 24.4463H27.6357C28.0337 24.4463 28.4152 24.2883 28.6962 24.0068C28.9777 23.7258 29.1357 23.3443 29.1357 22.9463C29.1357 19.9323 29.1357 10.9603 29.1357 7.94626C29.1357 7.54826 28.9777 7.16676 28.6962 6.88576C28.4152 6.60426 28.0337 6.44626 27.6357 6.44626H16.1357V4.94626H17.6357C18.4642 4.94626 19.1357 4.27476 19.1357 3.44626V1.94626C19.1357 1.11776 18.4642 0.446259 17.6357 0.446259H11.6357C10.8072 0.446259 10.1357 1.11776 10.1357 1.94626C10.1357 2.41676 10.1357 2.97576 10.1357 3.44626C10.1357 4.27476 10.8072 4.94626 11.6357 4.94626H13.1357ZM16.3327 24.4463H12.9387C12.8612 25.7118 12.5462 27.2863 11.6462 28.4463H17.6252C16.7252 27.2863 16.4102 25.7113 16.3327 24.4463ZM12.3457 15.4708C11.8317 15.7198 11.3497 16.0578 10.9232 16.4838C9.84074 17.5663 9.33074 19.0058 9.39174 20.4248C9.39224 20.4318 9.39224 20.4393 9.39224 20.4463H19.8792C19.8792 20.4393 19.8792 20.4318 19.8797 20.4248C19.9407 19.0058 19.4307 17.5663 18.3482 16.4838C17.9217 16.0578 17.4397 15.7198 16.9257 15.4708C16.8307 15.8878 16.6212 16.2833 16.2967 16.6073C15.3802 17.5243 13.8912 17.5243 12.9747 16.6073C12.6502 16.2833 12.4407 15.8878 12.3457 15.4708ZM2.13574 16.9463V17.9463C2.13574 18.2223 2.35974 18.4463 2.63574 18.4463C2.91174 18.4463 3.13574 18.2223 3.13574 17.9463V16.9463C3.13574 16.6703 2.91174 16.4463 2.63574 16.4463C2.35974 16.4463 2.13574 16.6703 2.13574 16.9463ZM15.9732 15.1193C15.0977 14.8898 14.1737 14.8898 13.2982 15.1193C13.3347 15.4053 13.4627 15.6813 13.6817 15.9003C14.2082 16.4268 15.0632 16.4268 15.5897 15.9003C15.8087 15.6813 15.9367 15.4053 15.9732 15.1193ZM3.13574 15.4463V8.94626C3.13574 8.67026 2.91174 8.44626 2.63574 8.44626C2.35974 8.44626 2.13574 8.67026 2.13574 8.94626V15.4463C2.13574 15.7223 2.35974 15.9463 2.63574 15.9463C2.91174 15.9463 3.13574 15.7223 3.13574 15.4463ZM14.6357 8.94626C16.0157 8.94626 17.1357 10.0663 17.1357 11.4463C17.1357 12.8263 16.0157 13.9463 14.6357 13.9463C13.2557 13.9463 12.1357 12.8263 12.1357 11.4463C12.1357 10.0663 13.2557 8.94626 14.6357 8.94626ZM14.1357 4.94626H14.8612H15.1357V6.44626H14.1357V4.94626ZM18.1357 1.94626V3.44626C18.1357 3.72226 17.9117 3.94626 17.6357 3.94626H11.6357C11.3597 3.94626 11.1357 3.72226 11.1357 3.44626V1.94626C11.1357 1.67026 11.3597 1.44626 11.6357 1.44626H17.6357C17.9117 1.44626 18.1357 1.67026 18.1357 1.94626ZM16.6357 2.19626C16.9117 2.19626 17.1357 2.42026 17.1357 2.69626C17.1357 2.97226 16.9117 3.19626 16.6357 3.19626C16.3597 3.19626 16.1357 2.97226 16.1357 2.69626C16.1357 2.42026 16.3597 2.19626 16.6357 2.19626ZM12.6357 2.19626C12.9117 2.19626 13.1357 2.42026 13.1357 2.69626C13.1357 2.97226 12.9117 3.19626 12.6357 3.19626C12.3597 3.19626 12.1357 2.97226 12.1357 2.69626C12.1357 2.42026 12.3597 2.19626 12.6357 2.19626Z" fill="#BD8971"/>
</svg>
