<svg width="21" height="21" viewBox="0 0 21 21" fill="none" xmlns="http://www.w3.org/2000/svg">
<g clip-path="url(#clip0_126_4451)">
<path d="M19.3857 10.0497H11.2607V1.92465H10.0107V10.0497H1.88574V11.2997H10.0107V19.4247H11.2607V11.2997H19.3857V10.0497Z" fill="#BD8971"/>
<path d="M16.627 13.1747L17.5107 14.0584L15.2695 16.2997L17.5107 18.5409L16.627 19.4247L13.502 16.2997L16.627 13.1747Z" fill="#BD8971"/>
<path d="M7.51081 19.4247H2.51081C2.40427 19.4247 2.29949 19.3974 2.20642 19.3456C2.11336 19.2937 2.0351 19.2189 1.97909 19.1282C1.92307 19.0376 1.89116 18.9342 1.88637 18.8277C1.88159 18.7213 1.90409 18.6154 1.95175 18.5201L4.45175 13.5201C4.50944 13.4232 4.5913 13.3431 4.6893 13.2874C4.7873 13.2317 4.89809 13.2024 5.01081 13.2024C5.12354 13.2024 5.23432 13.2317 5.33233 13.2874C5.43033 13.3431 5.51219 13.4232 5.56988 13.5201L8.06988 18.5201C8.11754 18.6154 8.14004 18.7213 8.13526 18.8277C8.13047 18.9342 8.09856 19.0376 8.04254 19.1282C7.98653 19.2189 7.90827 19.2937 7.81521 19.3456C7.72214 19.3974 7.61736 19.4247 7.51081 19.4247ZM3.52219 18.1747H6.49944L5.01081 15.1973L3.52219 18.1747Z" fill="#BD8971"/>
<path d="M18.1357 8.17465H14.3857C14.0543 8.17427 13.7366 8.04245 13.5023 7.80812C13.2679 7.57378 13.1361 7.25606 13.1357 6.92465V3.17465C13.1361 2.84325 13.2679 2.52553 13.5023 2.29119C13.7366 2.05685 14.0543 1.92503 14.3857 1.92465H18.1357C18.4671 1.92503 18.7849 2.05685 19.0192 2.29119C19.2535 2.52553 19.3854 2.84325 19.3857 3.17465V6.92465C19.3854 7.25606 19.2535 7.57378 19.0192 7.80812C18.7849 8.04245 18.4671 8.17427 18.1357 8.17465ZM14.3857 3.17465V6.92465H18.1364L18.1357 3.17465H14.3857Z" fill="#BD8971"/>
<path d="M5.01074 8.17465C4.39268 8.17465 3.78849 7.99137 3.27459 7.648C2.76068 7.30462 2.36014 6.81656 2.12362 6.24554C1.8871 5.67452 1.82521 5.04619 1.94579 4.44C2.06637 3.83381 2.364 3.27698 2.80103 2.83994C3.23807 2.40291 3.7949 2.10528 4.40109 1.9847C5.00728 1.86412 5.63561 1.92601 6.20663 2.16253C6.77765 2.39905 7.26571 2.79959 7.60909 3.3135C7.95247 3.8274 8.13574 4.43159 8.13574 5.04965C8.13477 5.87816 7.80521 6.67244 7.21937 7.25828C6.63353 7.84412 5.83925 8.17368 5.01074 8.17465ZM5.01074 3.17465C4.6399 3.17465 4.27739 3.28462 3.96905 3.49065C3.66071 3.69668 3.42038 3.98951 3.27847 4.33212C3.13656 4.67473 3.09942 5.05173 3.17177 5.41545C3.24412 5.77916 3.42269 6.11326 3.68492 6.37548C3.94714 6.6377 4.28123 6.81628 4.64495 6.88863C5.00866 6.96097 5.38566 6.92384 5.72828 6.78193C6.07089 6.64001 6.36372 6.39969 6.56975 6.09135C6.77578 5.78301 6.88574 5.42049 6.88574 5.04965C6.8852 4.55254 6.68748 4.07594 6.33597 3.72443C5.98445 3.37292 5.50786 3.1752 5.01074 3.17465Z" fill="#BD8971"/>
</g>
<defs>
<clipPath id="clip0_126_4451">
<rect width="20" height="20" fill="white" transform="translate(0.635742 0.674652)"/>
</clipPath>
</defs>
</svg>
