<svg id="Layer_1" data-name="Layer 1" xmlns="http://www.w3.org/2000/svg" viewBox="0 0 1503.77 152.8"><defs><style>.cls-1{fill:#9a3f25;}.cls-2{fill:#9d4c34;}.cls-3{fill:#9f5a42;}.cls-4{fill:#a26650;}.cls-5{fill:#a5745e;}.cls-6{fill:#a7806a;}.cls-7{fill:#aa8b78;}.cls-8{fill:#ac9884;}.cls-9{fill:#afa491;}</style></defs><title>logo</title><polygon class="cls-1" points="80.21 1.07 69.25 1.07 0 151.71 11.83 151.71 74.62 13.12 137.63 151.71 149.46 151.71 80.21 1.07"/><path class="cls-2" d="M291.28,107.43c-8.6-7.75-21.29-11.84-37.85-12.27L298.6,37.28V29.53H204.19v9.9H284.4l-44.52,57v8h9.46c14.62,0,25.59,3,32.9,8.82q11,9,11,24.53c0,10.33-3.66,18.51-10.75,24.53-7.31,6-17.42,8.82-30.75,8.82A72.38,72.38,0,0,1,224,166c-8.39-3.44-15.05-7.75-19.78-13.34L198.6,161c5.16,6.24,12.69,11.19,22.37,14.85a84.79,84.79,0,0,0,30.75,5.38c11.18,0,20.64-1.72,28.6-5.6a41.06,41.06,0,0,0,18.06-15.28,43.2,43.2,0,0,0,6-22.6c0-12.48-4.52-22.6-13.12-30.34Z" transform="translate(-25.23 -28.47)"/><path class="cls-3" d="M423.48,175.67a85.8,85.8,0,0,0,31.61,5.6c11.83,0,21.94-1.72,30.11-5.38,8.17-3.44,14.19-8.39,18.06-14.42a36.46,36.46,0,0,0,6-20c0-8.82-2.37-15.92-7.1-21.09a45.87,45.87,0,0,0-16.77-11.84,243.11,243.11,0,0,0-26.45-8,194.83,194.83,0,0,1-23.44-6.89,37,37,0,0,1-14.41-9.25q-5.81-5.81-5.81-16.14a26,26,0,0,1,10.75-21.74q10.64-8.39,31.61-8.39A75.25,75.25,0,0,1,479,41.38a71.31,71.31,0,0,1,20,9.47L503,42a81.42,81.42,0,0,0-20.86-9.9,87.9,87.9,0,0,0-24.52-3.66c-12,0-21.94,1.94-29.89,5.38-8,3.66-13.76,8.61-17.63,14.63a36.27,36.27,0,0,0-5.81,20c0,9,2.15,16.35,6.88,21.74a42.64,42.64,0,0,0,17,11.84,197.32,197.32,0,0,0,26.67,8,222.81,222.81,0,0,1,23.23,6.67A41.52,41.52,0,0,1,492.51,126q5.81,6.13,5.81,16.14,0,13.23-11,21.3c-7.31,5.59-18.28,8.18-32.47,8.18a79,79,0,0,1-28.39-5.16c-9-3.44-16.13-8.18-21.29-13.77l-4.95,8.18q8.39,9,23.23,14.85Z" transform="translate(-25.23 -28.47)"/><polygon class="cls-4" points="582.36 99.85 643 1.08 631.6 1.08 577.2 89.74 522.79 1.08 510.74 1.08 571.39 99.85 571.39 151.71 582.36 151.71 582.36 99.85"/><polygon class="cls-5" points="807.02 1.07 796.06 1.07 796.06 131.91 693.7 1.06 684.45 1.06 684.45 151.7 695.42 151.7 695.42 20.86 798 151.7 807.03 151.7 807.02 1.07"/><path class="cls-6" d="M902.76,170.27v9.9h97.42v-9.9Zm97.42-140.74H902.76v9.9h97.42Zm0,69.29H902.76v9.68h97.42Z" transform="translate(-25.23 -28.47)"/><path class="cls-7" d="M1144.11,127.46c11.18-3.23,20-8.82,26-17s9.25-18.08,9.25-30.13c0-15.71-5.38-28.19-16.13-37.23s-25.59-13.56-44.52-13.56h-54v9.9h54c15.91,0,28.17,3.66,36.77,10.76,8.39,7.1,12.69,17.22,12.69,30.13,0,13.13-4.3,23.24-12.69,30.34-8.6,7.1-20.86,10.54-36.77,10.54h-54v59h11V130.91h43a91.75,91.75,0,0,0,14.62-1.08l35.91,50.36h12.47Z" transform="translate(-25.23 -28.47)"/><path class="cls-8" d="M1345.18,105.52v51.86c-11.4,9.25-25.59,13.77-42.8,13.77-12.9,0-24.52-2.8-34.84-8.61A65.33,65.33,0,0,1,1243,138.66c-6-10.11-8.82-21.3-8.82-33.79S1237,81.2,1243,71.09a63.24,63.24,0,0,1,24.3-23.89,72.88,72.88,0,0,1,35.05-8.61,75.47,75.47,0,0,1,25.81,4.3,59.67,59.67,0,0,1,21.29,13.56l6.88-7.32a65.91,65.91,0,0,0-23.87-15.28,86.29,86.29,0,0,0-30.32-5.38,84.77,84.77,0,0,0-40.64,9.9,73.2,73.2,0,0,0-28.17,27.33c-6.88,11.62-10.11,24.75-10.11,39.17,0,14.63,3.23,27.55,10.11,39.17a71.7,71.7,0,0,0,28.17,27.33c12,6.67,25.38,9.9,40.43,9.9a85.94,85.94,0,0,0,29.68-4.95,63.22,63.22,0,0,0,24.09-14.42V105.52Z" transform="translate(-25.23 -28.47)"/><polygon class="cls-9" points="1443.12 99.85 1503.77 1.08 1492.37 1.08 1437.96 89.74 1383.56 1.08 1371.51 1.08 1432.16 99.85 1432.16 151.71 1443.12 151.71 1443.12 99.85"/></svg>