<?xml version="1.0" encoding="utf-8"?>
<!-- Generator: Adobe Illustrator 21.1.0, SVG Export Plug-In . SVG Version: 6.00 Build 0)  -->
<svg version="1.1" id="Layer_1" xmlns="http://www.w3.org/2000/svg" xmlns:xlink="http://www.w3.org/1999/xlink" x="0px" y="0px"
	 viewBox="0 0 1503.8 152.8" style="enable-background:new 0 0 1503.8 152.8;" xml:space="preserve">
<style type="text/css">
	.st0{fill:#FFFFFF;}
</style>
<title>logo</title>
<polygon class="st0" points="80.2,1.1 69.3,1.1 0,151.7 11.8,151.7 74.6,13.1 137.6,151.7 149.5,151.7 "/>
<path class="st0" d="M266,79c-8.6-7.8-21.3-11.8-37.8-12.3l45.2-57.9V1.1H179V11h80.2l-44.5,57v8h9.5c14.6,0,25.6,3,32.9,8.8
	c7.3,6,11,14.2,11,24.5c0,10.3-3.7,18.5-10.8,24.5c-7.3,6-17.4,8.8-30.7,8.8c-9.5,0.1-18.9-1.6-27.7-5.1
	c-8.4-3.4-15.1-7.8-19.8-13.3l-5.6,8.3c5.2,6.2,12.7,11.2,22.4,14.9c9.8,3.7,20.3,5.5,30.8,5.4c11.2,0,20.6-1.7,28.6-5.6
	c7.4-3.2,13.7-8.5,18.1-15.3c4-6.8,6.1-14.7,6-22.6C279.1,96.8,274.6,86.7,266,79L266,79z"/>
<path class="st0" d="M398.3,147.2c10.1,3.8,20.8,5.7,31.6,5.6c11.8,0,21.9-1.7,30.1-5.4c8.2-3.4,14.2-8.4,18.1-14.4
	c3.9-5.9,6-12.9,6-20c0-8.8-2.4-15.9-7.1-21.1c-4.6-5.2-10.4-9.2-16.8-11.8c-8.7-3.2-17.5-5.8-26.5-8c-7.9-1.8-15.8-4.1-23.4-6.9
	c-5.5-1.9-10.4-5.1-14.4-9.3c-3.9-3.9-5.8-9.3-5.8-16.1c-0.2-8.6,3.8-16.7,10.8-21.7c7.1-5.6,17.6-8.4,31.6-8.4
	c7.2,0.1,14.4,1.1,21.4,3.2c7.1,2.1,13.9,5.3,20,9.5l4-8.9c-6.4-4.3-13.5-7.6-20.9-9.9C449,1.3,440.7,0,432.4,0
	c-12,0-21.9,1.9-29.9,5.4c-8,3.7-13.8,8.6-17.6,14.6c-3.9,6-5.9,12.9-5.8,20c0,9,2.1,16.3,6.9,21.7c4.6,5.3,10.4,9.4,17,11.8
	c8.7,3.3,17.6,6,26.7,8c7.9,1.8,15.6,4,23.2,6.7c5.4,2.1,10.3,5.2,14.4,9.3c3.9,4.1,5.8,9.5,5.8,16.1c0,8.8-3.7,15.9-11,21.3
	c-7.3,5.6-18.3,8.2-32.5,8.2c-9.7,0-19.3-1.7-28.4-5.2c-9-3.4-16.1-8.2-21.3-13.8l-5,8.2C380.6,138.4,388.3,143.3,398.3,147.2
	L398.3,147.2z"/>
<polygon class="st0" points="582.4,99.8 643,1.1 631.6,1.1 577.2,89.7 522.8,1.1 510.7,1.1 571.4,99.8 571.4,151.7 582.4,151.7 "/>
<polygon class="st0" points="807,1.1 796.1,1.1 796.1,131.9 693.7,1.1 684.5,1.1 684.5,151.7 695.4,151.7 695.4,20.9 798,151.7 
	807,151.7 "/>
<path class="st0" d="M877.5,141.8v9.9H975v-9.9H877.5z M975,1.1h-97.4V11H975V1.1z M975,70.3h-97.4V80H975V70.3z"/>
<path class="st0" d="M1118.9,99c11.2-3.2,20-8.8,26-17s9.3-18.1,9.3-30.1c0-15.7-5.4-28.2-16.1-37.2s-25.6-13.6-44.5-13.6h-54V11h54
	c15.9,0,28.2,3.7,36.8,10.8c8.4,7.1,12.7,17.2,12.7,30.1c0,13.1-4.3,23.2-12.7,30.3c-8.6,7.1-20.9,10.5-36.8,10.5h-54v59h11v-49.3
	h43c4.9,0,9.8-0.3,14.6-1.1l35.9,50.4h12.5L1118.9,99z"/>
<path class="st0" d="M1320,77v51.9c-11.4,9.3-25.6,13.8-42.8,13.8c-12.9,0-24.5-2.8-34.8-8.6c-10.2-5.6-18.6-13.9-24.5-23.9
	c-6-10.1-8.8-21.3-8.8-33.8s2.8-23.7,8.8-33.8c5.8-10,14.2-18.3,24.3-23.9c10.8-5.8,22.8-8.7,35.1-8.6c8.8-0.1,17.5,1.4,25.8,4.3
	c8,3,15.2,7.6,21.3,13.6l6.9-7.3c-6.8-6.8-14.9-12-23.9-15.3c-9.7-3.6-20-5.4-30.3-5.4c-14.2-0.1-28.1,3.3-40.6,9.9
	c-11.7,6.4-21.4,15.8-28.2,27.3c-6.9,11.6-10.1,24.8-10.1,39.2c0,14.6,3.2,27.6,10.1,39.2c6.7,11.6,16.4,21,28.2,27.3
	c12,6.7,25.4,9.9,40.4,9.9c10.1,0.1,20.2-1.6,29.7-4.9c9-2.9,17.2-7.9,24.1-14.4V77H1320z"/>
<polygon class="st0" points="1443.1,99.8 1503.8,1.1 1492.4,1.1 1438,89.7 1383.6,1.1 1371.5,1.1 1432.2,99.8 1432.2,151.7 
	1443.1,151.7 "/>
</svg>
