<svg id="Layer_1" data-name="Layer 1" xmlns="http://www.w3.org/2000/svg" viewBox="0 0 665.67 649"><defs><style>.cls-1{fill:#606060;}</style></defs><title>giro-titulo</title><path class="cls-1" d="M716.67,724.5H500A24.5,24.5,0,0,1,475.5,700V683.33A108,108,0,0,1,583.33,575.5h50A108,108,0,0,1,741.17,683.33V700A24.5,24.5,0,0,1,716.67,724.5ZM525,675.5H691.65a58.92,58.92,0,0,0-58.31-51h-50A58.92,58.92,0,0,0,525,675.5Zm-158.35,49H100A24.5,24.5,0,0,1,75.5,700V153.33c0-21.13,0-33.88,6.3-46.26A57.49,57.49,0,0,1,107.08,81.8c12.37-6.3,25.13-6.3,46.26-6.3H446.67c21.13,0,33.88,0,46.26,6.3a57.49,57.49,0,0,1,25.27,25.27c6.3,12.37,6.3,25.13,6.3,46.26V300a24.5,24.5,0,0,1-49,0V153.33c0-10.51,0-21.38-1-24.07a8.78,8.78,0,0,0-3.76-3.76c-2.69-1-13.56-1-24.08-1H153.33c-10.52,0-21.39,0-24.08,1a8.78,8.78,0,0,0-3.76,3.76c-1,2.69-1,13.56-1,24.08V675.5h84.33V600a91.17,91.17,0,1,1,182.33,0V700A24.5,24.5,0,0,1,366.67,724.5Zm-108.83-49h84.33V600a42.17,42.17,0,1,0-84.33,0ZM474.49,129.22h0Zm-349,0h0Zm3.71-3.7h0Zm477.45,399a74.5,74.5,0,1,1,74.5-74.5A74.58,74.58,0,0,1,606.67,524.5Zm0-100a25.5,25.5,0,1,0,25.5,25.5A25.53,25.53,0,0,0,606.67,424.5ZM400,457.83H366.67a24.5,24.5,0,0,1,0-49H400a24.5,24.5,0,0,1,0,49Zm-166.67,0H200a24.5,24.5,0,0,1,0-49h33.33a24.5,24.5,0,0,1,0,49ZM400,357.83H366.67a24.5,24.5,0,0,1,0-49H400a24.5,24.5,0,0,1,0,49Zm-166.67,0H200a24.5,24.5,0,0,1,0-49h33.33a24.5,24.5,0,0,1,0,49ZM400,257.83H366.67a24.5,24.5,0,0,1,0-49H400a24.5,24.5,0,0,1,0,49Zm-166.67,0H200a24.5,24.5,0,0,1,0-49h33.33a24.5,24.5,0,0,1,0,49Z" transform="translate(-75.5 -75.5)"/></svg>