<svg id="Layer_1" data-name="Layer 1" xmlns="http://www.w3.org/2000/svg" viewBox="0 0 599.89 700"><defs><style>.cls-1{fill:#606060;}</style></defs><title>auditoria-titulo</title><g id="_-Product-Icons" data-name="-Product-Icons"><g id="ic_fluent_document_search_24_regular" data-name="ic fluent document search 24 regular"><path id="_Color" data-name="Color" class="cls-1" d="M380.29,364.87a164.24,164.24,0,0,1,18,210.86l-4.71,6.32L534.18,722.67l2.5,2.89a25.78,25.78,0,0,1-36.05,36.05l-2.89-2.5L355.85,617.24a164.21,164.21,0,1,1,24.44-252.37Zm57.34-298.2a75,75,0,0,1,53,22l93.73,93.68L678,276a75,75,0,0,1,21.93,53V658.33a75,75,0,0,1-75,75l-50.31,0a58.86,58.86,0,0,0-11.14-27.66l-4-4.81L541.85,683.3l83,0a25,25,0,0,0,25-25l0-324.9-141.53,0a75,75,0,0,1-74.83-69.87l-.17-5.13V116.67H241.67a25,25,0,0,0-25,25V289a196.47,196.47,0,0,0-50,19.39l0-166.76a75,75,0,0,1,75-75ZM184.54,401.32a112.64,112.64,0,1,0,159.3,0A112.64,112.64,0,0,0,184.54,401.32ZM483.33,152V258.46a25,25,0,0,0,21.61,24.77l3.39.23,106.37,0Z" transform="translate(-100 -66.67)"/></g></g></svg>