<svg id="Layer_1" data-name="Layer 1" xmlns="http://www.w3.org/2000/svg" viewBox="0 0 800 800"><defs><style>.cls-1{fill:#606060;}</style></defs><title>necesidades-titulo</title><path class="cls-1" d="M236.89,278.72A111.59,111.59,0,0,0,125.4,390.21c0,61.41,50.08,111.49,111.49,111.49s111.49-50.08,111.49-111.49A111.59,111.59,0,0,0,236.89,278.72Zm0,178.57A67.08,67.08,0,1,1,304,390.21,67.08,67.08,0,0,1,236.89,457.29Z" transform="translate(0 0.03)"/><path class="cls-1" d="M473.57,776.48C466.48,651,362.39,552.87,236.89,552.87S7.3,651.13.06,776.48C-.26,782.62.06,800,22.26,800h429.1C473.57,800,473.88,782.62,473.57,776.48ZM47.3,755.54c16.38-90.39,95.58-158.26,189.59-158.26s173.22,67.87,189.59,158.26Z" transform="translate(0 0.03)"/><path class="cls-1" d="M733.39,0H426.32a66.73,66.73,0,0,0-66.61,66.61V249.43c0,72.12,69.6,66.61,69.6,66.61v85.35c0,8.35,4.41,16.22,12,19.68,7.87,3.62,19.21,1.1,23-1.57L611,316H733.39A66.73,66.73,0,0,0,800,249.43V66.61A66.73,66.73,0,0,0,733.39,0ZM755.75,249.4h-.16a22.18,22.18,0,0,1-22.16,22.2H604.11a21.61,21.61,0,0,0-12.76,4.09L473.88,358.55V293.83a22.18,22.18,0,0,0-22.16-22.2H426.48a22.18,22.18,0,0,1-22.2-22.16V66.61a22.18,22.18,0,0,1,22.16-22.2H733.55a22.18,22.18,0,0,1,22.2,22.16V249.4Z" transform="translate(0 0.03)"/><path class="cls-1" d="M683.79,88.81H475.93a22.21,22.21,0,1,0,0,44.41h207.7a22.21,22.21,0,0,0,.16-44.41Z" transform="translate(0 0.03)"/><path class="cls-1" d="M683.79,182.35H475.93a22.21,22.21,0,1,0,0,44.41h207.7a22.18,22.18,0,0,0,22.2-22.16v0a21.94,21.94,0,0,0-21.67-22.21Z" transform="translate(0 0.03)"/></svg>