<svg width="54" height="37" viewBox="0 0 54 37" fill="none" xmlns="http://www.w3.org/2000/svg">
<rect width="54" height="37" rx="3" fill="#E3E3E3"/>
<path d="M28.2688 18.9337L26.7075 23.0525L27.8357 22.906C31.7318 22.3914 35.4606 20.852 37.2317 20.0451C38.9143 19.4105 40.3668 18.3266 41.4114 16.9186C42.465 15.501 43.1056 13.7383 43.103 11.8342C43.1055 10.5896 42.8295 9.39972 42.347 8.33254C41.6178 6.72961 40.422 5.4002 38.9452 4.4689C37.4658 3.5376 35.6971 3.00186 33.8006 3C31.2734 3.00186 28.9712 3.95247 27.2786 5.52806C26.4332 6.31626 25.7383 7.26256 25.2549 8.33242C24.7699 9.39961 24.4981 10.5895 24.4981 11.8341C24.4965 13.4231 24.9413 14.9165 25.7023 16.1894C26.3529 17.2778 27.2327 18.2072 28.2688 18.9337ZM26.4007 9.05443C26.986 7.75875 27.9862 6.627 29.2682 5.81926C30.5502 5.01163 32.1132 4.53138 33.8007 4.53231C36.0535 4.53138 38.0772 5.38508 39.5172 6.72938C40.2365 7.40112 40.8109 8.19119 41.2014 9.05431C41.592 9.91848 41.8043 10.8525 41.8052 11.834C41.8043 13.3311 41.311 14.7259 40.4345 15.9095C39.5598 17.0914 38.2963 18.0465 36.8018 18.6009L36.781 18.6071L36.7609 18.6159C35.2289 19.3194 32.1273 20.5958 28.8324 21.2004L29.9496 18.2584L29.4019 17.9282C28.2939 17.2601 27.3882 16.3509 26.7644 15.3084C26.1406 14.2606 25.7986 13.0866 25.7969 11.834C25.7969 10.8526 26.0093 9.9186 26.4007 9.05443Z" fill="#9C9C9C"/>
<path d="M30.1312 13.2411C30.6899 13.2411 31.1422 12.7079 31.1422 12.0495C31.1422 11.3945 30.6899 10.8605 30.1312 10.8605C29.575 10.8605 29.1218 11.3945 29.1218 12.0495C29.1218 12.7079 29.5751 13.2411 30.1312 13.2411Z" fill="#9C9C9C"/>
<path d="M34.029 13.2411C34.5859 13.2411 35.0392 12.7079 35.0392 12.0495C35.0392 11.3945 34.586 10.8605 34.029 10.8605C33.4703 10.8605 33.0171 11.3945 33.0171 12.0495C33.0171 12.7079 33.4703 13.2411 34.029 13.2411Z" fill="#9C9C9C"/>
<path d="M37.9241 13.2411C38.4827 13.2411 38.9344 12.7079 38.9344 12.0495C38.9344 11.3945 38.4827 10.8605 37.9241 10.8605C37.3655 10.8605 36.9139 11.3945 36.9139 12.0495C36.914 12.7079 37.3655 13.2411 37.9241 13.2411Z" fill="#9C9C9C"/>
<path d="M28.3859 32.29C28.3859 29.076 26.5988 26.4279 23.1852 25.8366C22.7153 26.0016 22.2143 26.0943 21.6933 26.0943C21.1707 26.0943 20.6698 26.0017 20.1998 25.8366C16.7863 26.428 15 29.0761 15 32.29H21.6933H28.3859Z" fill="#9C9C9C"/>
<path d="M21.6934 24.9485C23.7155 24.9485 25.3561 23.2176 25.3561 21.0823V19.9851C25.3561 17.8489 23.7155 16.118 21.6934 16.118C19.6697 16.118 18.029 17.8489 18.029 19.9851V21.0823C18.029 23.2175 19.6697 24.9485 21.6934 24.9485Z" fill="#9C9C9C"/>
</svg>
