<svg width="54" height="37" viewBox="0 0 54 37" fill="none" xmlns="http://www.w3.org/2000/svg">
<rect width="54" height="37" rx="3" fill="#E3E3E3"/>
<g clip-path="url(#clip0_227_207)">
<path d="M40.0331 31.7339L29.625 10.9185V9.375H32.25C32.733 9.375 33.125 8.983 33.125 8.5V5.875C33.125 5.392 32.733 5 32.25 5H28.75C28.267 5 27.875 5.392 27.875 5.875V10.9185L22.625 21.4185L21.6573 19.4839C21.3344 18.839 20.4148 18.839 20.0919 19.4839L13.9669 31.7339C13.6764 32.3158 14.099 33 14.75 33H39.25C39.901 33 40.3236 32.3158 40.0331 31.7339ZM29.625 6.75H31.375V7.625H29.625V6.75ZM28.75 13.0815L30.3968 16.375L28.75 19.6685L27.1033 16.375L28.75 13.0815ZM20.875 21.8315L21.6468 23.375L20.875 24.9185L20.1033 23.375L20.875 21.8315ZM16.1658 31.25L19.6141 24.3533L20.875 26.875L22.1359 24.3533L25.5843 31.25H16.1658ZM26.5625 31.25L23.1141 24.3533L26.6141 17.3533L28.75 21.625L30.8859 17.3533L37.8343 31.25H26.5625Z" fill="#9C9C9C"/>
</g>
<defs>
<clipPath id="clip0_227_207">
<rect width="28" height="28" fill="white" transform="translate(13 5)"/>
</clipPath>
</defs>
</svg>
