<svg width="22" height="26" viewBox="0 0 22 26" fill="none" xmlns="http://www.w3.org/2000/svg">
<path d="M0.999969 3.16241C0.999969 2.47206 1.55962 1.91241 2.24997 1.91241H13.5H14.2322C14.5637 1.91241 14.8817 2.04411 15.1161 2.27853L20.6338 7.7963C20.8682 8.03071 21 8.34867 21 8.68018V23.1624C21 23.8528 20.4403 24.4124 19.75 24.4124H2.24997C1.55962 24.4124 0.999969 23.8528 0.999969 23.1624V3.16241Z" stroke="#B23410" stroke-width="2" stroke-linecap="round"/>
<path d="M21 8.16241H14.75V1.91241" stroke="#B23410" stroke-width="2" stroke-linecap="round" stroke-linejoin="round"/>
<path d="M10.375 12.25H9.75V17.25H10.375C11.7557 17.25 12.875 16.1307 12.875 14.75C12.875 13.3692 11.7557 12.25 10.375 12.25Z" stroke="#B23410" stroke-width="2" stroke-linecap="round" stroke-linejoin="round"/>
<path d="M15.375 17.25V12.25H17.875" stroke="#B23410" stroke-width="2" stroke-linecap="round" stroke-linejoin="round"/>
<path d="M16 14.75H17.25" stroke="#B23410" stroke-width="2" stroke-linecap="round" stroke-linejoin="round"/>
<path d="M4.75 17.25V15.375M4.75 15.375V12.25H5.6875C6.55045 12.25 7.25 12.9495 7.25 13.8125C7.25 14.6755 6.55045 15.375 5.6875 15.375H4.75Z" stroke="#B23410" stroke-width="2" stroke-linecap="round" stroke-linejoin="round"/>
</svg>
