<svg width="78" height="43" viewBox="0 0 78 43" fill="none" xmlns="http://www.w3.org/2000/svg">
<path d="M23.1196 0.271606H20.0908L0.953613 42.3691H4.22283L21.5748 3.63907L38.9876 42.3691H42.2568L23.1196 0.271606Z" fill="#C4C1BD"/>
<path d="M74.3592 21.8884C71.97 19.7378 68.4445 18.6029 63.8438 18.4835L76.3929 2.42218V0.271606H50.1641V3.0188H72.4478L60.0794 18.836V21.0559H62.7076C66.7692 21.0559 69.8169 21.8884 71.8478 23.5034C73.8851 25.1684 74.9037 27.4373 74.9037 30.3103C74.9037 33.1768 73.8869 35.4467 71.9172 37.1173C69.8864 38.7822 67.0776 39.5648 63.3743 39.5648C60.7368 39.5997 58.1182 39.116 55.6677 38.1412C53.3368 37.1866 51.4865 35.9906 50.1724 34.4394L48.6111 36.7537C50.0446 38.4853 52.1366 39.8589 54.8259 40.8745C57.5564 41.896 60.4532 42.4022 63.3688 42.3674C66.4748 42.3674 69.1029 41.8902 71.3143 40.8135C73.3671 39.9224 75.1119 38.4478 76.3317 36.5734C77.454 34.6757 78.0308 32.5058 77.9986 30.302C77.9986 26.8389 76.7429 24.0306 74.3537 21.8828L74.3592 21.8884Z" fill="#C4C1BD"/>
</svg>
