<svg width="28" height="28" viewBox="0 0 28 28" fill="none" xmlns="http://www.w3.org/2000/svg">
<path d="M9.04164 2.91675C9.04164 2.4335 8.64989 2.04175 8.16664 2.04175C7.6834 2.04175 7.29164 2.4335 7.29164 2.91675V4.75922C5.61243 4.89368 4.51004 5.22368 3.70014 6.03358C2.89024 6.84348 2.56024 7.94586 2.42578 9.62508H25.5741C25.4397 7.94586 25.1097 6.84348 24.2998 6.03358C23.4899 5.22368 22.3875 4.89368 20.7083 4.75922V2.91675C20.7083 2.4335 20.3165 2.04175 19.8333 2.04175C19.3501 2.04175 18.9583 2.4335 18.9583 2.91675V4.6818C18.1821 4.66675 17.3121 4.66675 16.3333 4.66675H11.6666C10.6878 4.66675 9.81779 4.66675 9.04164 4.6818V2.91675Z" fill="#49495C"/>
<path fill-rule="evenodd" clip-rule="evenodd" d="M25.6668 14V16.3333C25.6668 20.7331 25.6668 22.933 24.3 24.2998C22.9332 25.6667 20.7332 25.6667 16.3335 25.6667H11.6668C7.26705 25.6667 5.06717 25.6667 3.70033 24.2998C2.3335 22.933 2.3335 20.7331 2.3335 16.3333V14C2.3335 13.0212 2.3335 12.1512 2.34855 11.375H25.6518C25.6668 12.1512 25.6668 13.0212 25.6668 14ZM19.2502 21C20.2166 21 21.0002 20.2165 21.0002 19.25C21.0002 18.2835 20.2166 17.5 19.2502 17.5C18.2837 17.5 17.5002 18.2835 17.5002 19.25C17.5002 20.2165 18.2837 21 19.2502 21Z" fill="#49495C"/>
</svg>
