<svg id="Layer_1" data-name="Layer 1" xmlns="http://www.w3.org/2000/svg" viewBox="0 0 25.63 23.8"><defs><style>.cls-1{fill:#bd8971;}</style></defs><title>estatus</title><path class="cls-1" d="M12.29,3.41a1.57,1.57,0,0,1,3-.2l.08.2L20.22,19l1.69-5.36a1.63,1.63,0,0,1,1.33-1.15H25a1.71,1.71,0,0,1,.19,3.39h-.64l-2.84,9a1.57,1.57,0,0,1-3,.2l-.08-.2L13.81,9.32,10.53,19.79a1.57,1.57,0,0,1-2.92.28l-.08-.19L5.74,15.16l-.11.15a1.57,1.57,0,0,1-1,.53h-2a1.71,1.71,0,0,1-.19-3.39h1l.93-2.36a1.56,1.56,0,0,1,2.88-.17l.08.19,1.58,4.19Z" transform="translate(-1 -2.25)"/></svg>