<svg id="Layer_1" data-name="Layer 1" xmlns="http://www.w3.org/2000/svg" viewBox="0 0 17.92 17.92"><defs><style>.cls-1{fill:#606060;}</style></defs><title>permisosXL</title><path class="cls-1" d="M.63,2.69A2.44,2.44,0,0,1,3.07.25H6.14A2.44,2.44,0,0,1,8.32,1.6l.73,1.46a.81.81,0,0,0,.73.45H16.1A2.44,2.44,0,0,1,18.55,6v9.77a2.44,2.44,0,0,1-2.44,2.44h-13A2.44,2.44,0,0,1,.63,15.72Zm2.44-.81a.81.81,0,0,0-.81.81v13a.81.81,0,0,0,.81.81h13a.81.81,0,0,0,.81-.81V6a.81.81,0,0,0-.81-.81H9.78A2.44,2.44,0,0,1,7.6,3.79L6.87,2.33a.81.81,0,0,0-.73-.45Z" transform="translate(-0.63 -0.25)"/><path class="cls-1" d="M7.12,10v0a5.1,5.1,0,0,1,.1-1.17,2.87,2.87,0,0,1,.66-1.36,2.26,2.26,0,0,1,1.71-.71,2.26,2.26,0,0,1,1.71.71A2.87,2.87,0,0,1,12,8.83a5.1,5.1,0,0,1,.1,1.17v0a.81.81,0,0,1,.78.81v3.26a.81.81,0,0,1-.81.81H7.15a.81.81,0,0,1-.81-.81V10.84A.81.81,0,0,1,7.12,10Zm3.32,0V10a3.48,3.48,0,0,0-.06-.79,1.27,1.27,0,0,0-.26-.6.64.64,0,0,0-.52-.19.64.64,0,0,0-.52.19,1.27,1.27,0,0,0-.26.6,3.49,3.49,0,0,0-.06.79V10Z" transform="translate(-0.63 -0.25)"/></svg>