<svg id="Layer_1" data-name="Layer 1" xmlns="http://www.w3.org/2000/svg" viewBox="0 0 19.6 19.38"><defs><style>.cls-1{fill:#767676;}</style></defs><title>pilarXL</title><path class="cls-1" d="M3.76,7.34A3.37,3.37,0,0,1,2,1.09,3.5,3.5,0,0,1,3.79.61H16.64a3.36,3.36,0,1,1-2.86,5.12H6.64A3.36,3.36,0,0,1,4.23,7.31,3.43,3.43,0,0,1,3.76,7.34Zm0-4.81A1.45,1.45,0,0,0,2.32,4.07a1.45,1.45,0,0,0,2.36,1,1.46,1.46,0,0,0,.45-.64l.23-.64h9.7l.23.64a1.44,1.44,0,1,0,1.36-1.92H3.77Z" transform="translate(-0.4 -0.61)"/><rect class="cls-1" x="5.65" y="3.2" width="8.29" height="1.92"/><rect class="cls-1" x="13.64" y="5.14" width="1.92" height="14.23"/><rect class="cls-1" x="4.03" y="5.14" width="1.92" height="14.23"/><rect class="cls-1" x="7.23" y="7.37" width="1.92" height="12.01"/><rect class="cls-1" x="10.43" y="7.37" width="1.92" height="12.01"/></svg>