<?xml version="1.0" encoding="utf-8"?>
<!-- Generator: Adobe Illustrator 21.1.0, SVG Export Plug-In . SVG Version: 6.00 Build 0)  -->
<svg version="1.1" id="Layer_1" xmlns="http://www.w3.org/2000/svg" xmlns:xlink="http://www.w3.org/1999/xlink" x="0px" y="0px"
	 viewBox="0 0 18.8 18.8" style="enable-background:new 0 0 18.8 18.8;" xml:space="preserve">
<style type="text/css">
	.st0{fill:#606060;}
</style>
<title>tipoXL</title>
<path class="st0" d="M0.6,2.7c0-1.3,1.1-2.4,2.4-2.4h3.1c0.9,0,1.8,0.5,2.2,1.4l0.7,1.5c0.1,0.3,0.4,0.5,0.7,0.5h6.3
	c1.3,0,2.4,1.1,2.4,2.4v9.8c0,1.3-1.1,2.4-2.4,2.4h-13c-1.3,0-2.4-1.1-2.4-2.4V2.7z M3.1,1.9c-0.4,0-0.8,0.4-0.8,0.8v13
	c0,0.4,0.4,0.8,0.8,0.8h13c0.4,0,0.8-0.4,0.8-0.8V6c0-0.4-0.4-0.8-0.8-0.8H9.8C8.9,5.1,8,4.6,7.6,3.8L6.9,2.3
	C6.7,2.1,6.4,1.9,6.1,1.9H3.1z"/>
<path class="st0" d="M7.1,10C7.1,10,7.1,10,7.1,10c0-0.3,0-0.7,0.1-1.2c0.1-0.4,0.3-0.9,0.7-1.4c0.4-0.4,1-0.7,1.7-0.7
	c0.7,0,1.3,0.3,1.7,0.7c0.4,0.4,0.6,0.9,0.7,1.4c0.1,0.4,0.1,0.9,0.1,1.2c0,0,0,0,0,0c0.4,0,0.8,0.4,0.8,0.8v3.3
	c0,0.4-0.4,0.8-0.8,0.8H7.1c-0.4,0-0.8-0.4-0.8-0.8v-3.3C6.3,10.4,6.7,10,7.1,10z M10.4,10C10.4,10,10.4,10,10.4,10
	c0-0.3,0-0.6-0.1-0.8c-0.1-0.3-0.2-0.5-0.3-0.6C10,8.5,9.9,8.4,9.6,8.4c-0.3,0-0.4,0.1-0.5,0.2C9,8.7,8.9,8.9,8.8,9.2
	C8.7,9.4,8.7,9.7,8.7,10c0,0,0,0,0,0.1H10.4z"/>
</svg>
