<svg width="54" height="37" viewBox="0 0 54 37" fill="none" xmlns="http://www.w3.org/2000/svg">
<rect width="54" height="37" rx="3" fill="#E3E3E3"/>
<path fill-rule="evenodd" clip-rule="evenodd" d="M30.9667 7.66668H36.9167C38.475 7.66668 39.75 8.94168 39.75 10.5V30.3333C39.75 31.8917 38.475 33.1667 36.9167 33.1667H17.0833C15.525 33.1667 14.25 31.8917 14.25 30.3333V10.5C14.25 8.94168 15.525 7.66668 17.0833 7.66668H23.0333C23.6 5.96668 25.1583 4.83334 27 4.83334C28.8417 4.83334 30.4 5.96668 30.9667 7.66668ZM28.4167 9.08334C28.4167 8.37501 27.7083 7.66668 27 7.66668C26.2917 7.66668 25.5833 8.37501 25.5833 9.08334C25.5833 9.79168 26.2917 10.5 27 10.5C27.7083 10.5 28.4167 9.79168 28.4167 9.08334ZM26.5251 23.3133L21.8742 13.448L18.864 20.4172H17.0833V22.5422H20.261L21.9589 18.611L26.2353 27.682L30.0764 21.7286L32.458 25.6092L34.944 22.5422H36.9167V20.4172H33.931L32.6983 21.938L30.1215 17.7393L26.5251 23.3133Z" fill="#9C9C9C"/>
</svg>
