<svg id="Layer_1" data-name="Layer 1" xmlns="http://www.w3.org/2000/svg" viewBox="0 0 20.42 20.42"><defs><style>.cls-1{fill:#767676;}</style></defs><title>calendarXL</title><path class="cls-1" d="M19.74,20.83H7.85a5.61,5.61,0,0,1-2.61-.33,3,3,0,0,1-1.33-1.33,5.61,5.61,0,0,1-.33-2.61V6.73a5.61,5.61,0,0,1,.33-2.61A3,3,0,0,1,5.24,2.8a5.22,5.22,0,0,1,2.44-.33V1.4a1,1,0,1,1,2,0V2.47h8.28V1.4a1,1,0,0,1,2,0V2.47a5.22,5.22,0,0,1,2.44.33,3,3,0,0,1,1.33,1.33A5.61,5.61,0,0,1,24,6.73v9.84a5.61,5.61,0,0,1-.33,2.61,3,3,0,0,1-1.33,1.33A5.61,5.61,0,0,1,19.74,20.83ZM5.55,8.53v8a5.64,5.64,0,0,0,.12,1.71,1.06,1.06,0,0,0,.47.47,5.64,5.64,0,0,0,1.71.12H19.74a5.64,5.64,0,0,0,1.71-.12,1.06,1.06,0,0,0,.47-.47A5.64,5.64,0,0,0,22,16.57v-8Zm0-2H22A4.91,4.91,0,0,0,21.92,5a1.06,1.06,0,0,0-.47-.47,5.64,5.64,0,0,0-1.71-.12H7.85a5.64,5.64,0,0,0-1.71.12A1.06,1.06,0,0,0,5.67,5,4.91,4.91,0,0,0,5.55,6.57ZM19.94,16.73h-2a1,1,0,0,1,0-2h2a1,1,0,0,1,0,2Zm-5.12,0h-2a1,1,0,1,1,0-2h2a1,1,0,1,1,0,2Zm-5.12,0h-2a1,1,0,0,1,0-2h2a1,1,0,0,1,0,2Zm10.25-4.1h-2a1,1,0,0,1,0-2h2a1,1,0,0,1,0,2Zm-5.12,0h-2a1,1,0,1,1,0-2h2a1,1,0,1,1,0,2Zm-5.12,0h-2a1,1,0,0,1,0-2h2a1,1,0,0,1,0,2Z" transform="translate(-3.58 -0.42)"/></svg>