<svg id="Layer_1" data-name="Layer 1" xmlns="http://www.w3.org/2000/svg" viewBox="0 0 21.03 20.16"><defs><style>.cls-1{fill:#767676;}</style></defs><title>nivelXL</title><path class="cls-1" d="M11.36,10.87H8.7V1.54a.92.92,0,0,0-1.83,0v9.33H4.21a1.72,1.72,0,0,0,0,3.43H6.87V20A.92.92,0,0,0,8.7,20V14.29h2.66a1.72,1.72,0,0,0,0-3.43Z" transform="translate(-2.63 -0.69)"/><path class="cls-1" d="M19.37,18.79H15a1,1,0,0,0,0,2.06h4.34A1,1,0,0,0,19.37,18.79Z" transform="translate(-2.63 -0.69)"/><path class="cls-1" d="M20,15.17H15a1,1,0,0,0,0,2.06h5A1,1,0,0,0,20,15.17Z" transform="translate(-2.63 -0.69)"/><path class="cls-1" d="M20.68,11.55H15a1,1,0,0,0,0,2.06h5.65A1,1,0,0,0,20.68,11.55Z" transform="translate(-2.63 -0.69)"/><path class="cls-1" d="M21.34,7.93H15A1,1,0,0,0,15,10h6.31A1,1,0,0,0,21.34,7.93Zm0,1.39H15c-.27,0-.31-.23-.31-.36s0-.36.31-.36h6.31c.27,0,.31.23.31.36S21.61,9.32,21.34,9.32Z" transform="translate(-2.63 -0.69)"/><path class="cls-1" d="M22,4.31H15a1,1,0,0,0,0,2.06h7A1,1,0,0,0,22,4.31ZM22,5.7H15c-.27,0-.31-.23-.31-.36S14.76,5,15,5h7c.27,0,.31.23.31.36S22.27,5.7,22,5.7Z" transform="translate(-2.63 -0.69)"/><path class="cls-1" d="M22.66.69H15a1,1,0,0,0,0,2.06h7.62A1,1,0,0,0,22.66.69Zm0,1.39H15c-.27,0-.31-.23-.31-.36s0-.36.31-.36h7.62c.27,0,.31.23.31.36S22.93,2.08,22.66,2.08Z" transform="translate(-2.63 -0.69)"/></svg>