<svg id="Layer_1" data-name="Layer 1" xmlns="http://www.w3.org/2000/svg" viewBox="0 0 22.17 20.29"><defs><style>.cls-1{fill:none;}.cls-2{fill:#767676;}</style></defs><title>userXL</title><rect class="cls-1" width="22.17" height="20.29"/><path class="cls-2" d="M21.1,14a3.67,3.67,0,0,0-2.74-1.2h-2V11.37a7.42,7.42,0,0,0,1.11-1.55,2.1,2.1,0,0,0,1.45-1.41c.37-.95.2-1.8-.39-2.11a4.83,4.83,0,0,0-1-3.81A5.21,5.21,0,0,0,13.31.58,5.21,5.21,0,0,0,9.09,2.49a4.83,4.83,0,0,0-1,3.8c-.61.3-.79,1.16-.42,2.12A2,2,0,0,0,9.14,9.82a6.14,6.14,0,0,0,1.16,1.63v1.33h-2A3.72,3.72,0,0,0,5.5,14a4,4,0,0,0-1,2.68v1.93a.52.52,0,0,0,.32.47,20.91,20.91,0,0,0,8.55,1.82,21,21,0,0,0,3.43-.28A17.71,17.71,0,0,0,21.84,19a.49.49,0,0,0,.26-.45V16.66A3.93,3.93,0,0,0,21.1,14ZM14,16.18a.37.37,0,0,1-.39.35H13a.37.37,0,0,1-.39-.35v-.52a.37.37,0,0,1,.39-.35h.57a.37.37,0,0,1,.39.35Zm.36-1.75a1.62,1.62,0,0,0-.72-.15H13a1.62,1.62,0,0,0-.72.15l-.94-.87a.5.5,0,0,0,.06-.25V12.4a3.36,3.36,0,0,0,1.87.57,3.54,3.54,0,0,0,1.94-.62v1a.54.54,0,0,0,.06.2ZM10,3.1a4,4,0,0,1,3.3-1.48,4,4,0,0,1,3.3,1.48,3.8,3.8,0,0,1,.77,3.14,5.1,5.1,0,0,1-5.55-2.49.58.58,0,0,0-.59-.28.55.55,0,0,0-.48.43s-.4,2-1.52,2.36A3.8,3.8,0,0,1,10,3.1ZM8.63,7.31A3,3,0,0,0,11.54,5.2a7,7,0,0,0,.94.9,5.88,5.88,0,0,0,3.71,1.31A9.67,9.67,0,0,0,18,7.24a1.49,1.49,0,0,1-.1.82,1.43,1.43,0,0,1-.52.72.62.62,0,0,0-.37,0,.55.55,0,0,0-.33.28c-.65,1.33-1.9,2.88-3.32,2.88S10.64,10.38,10,9.05a.55.55,0,0,0-.35-.28l-.17,0a.61.61,0,0,0-.21,0,1.44,1.44,0,0,1-.52-.72A1.52,1.52,0,0,1,8.63,7.31Zm-3,9.35A2.73,2.73,0,0,1,8.27,13.8h1.8l1.5,1.4a1.39,1.39,0,0,0-.08.44v.53a1.33,1.33,0,0,0,.46,1l-.5,2.58A20,20,0,0,1,5.6,18.26Zm7,3.16L13,17.56h.56L14,19.82C13.57,19.84,13.1,19.84,12.6,19.82ZM21,18.27a17.65,17.65,0,0,1-4.46,1.31c-.42.07-.87.13-1.36.17l-.51-2.59a1.31,1.31,0,0,0,.44-1v-.53A1.38,1.38,0,0,0,15,15.2l1.53-1.4h1.8A2.69,2.69,0,0,1,21,16.66v1.61Z" transform="translate(-2.2 -0.58)"/></svg>