<svg width="38" height="34" viewBox="0 0 38 34" fill="none" xmlns="http://www.w3.org/2000/svg">
<path d="M27.1619 23.92H27.1774M25.0036 19.795H28.7036C30.1403 19.795 30.8586 19.795 31.4253 20.0043C32.1807 20.2834 32.781 20.8188 33.094 21.4926C33.3286 21.998 33.3286 22.6387 33.3286 23.92C33.3286 25.2014 33.3286 25.842 33.094 26.3474C32.781 27.0212 32.1807 27.5566 31.4253 27.8357C30.8586 28.045 30.1403 28.045 28.7036 28.045H10.2036C8.76696 28.045 8.04864 28.045 7.482 27.8357C6.72651 27.5566 6.12626 27.0212 5.81332 26.3474C5.57861 25.842 5.57861 25.2014 5.57861 23.92C5.57861 22.6387 5.57861 21.998 5.81332 21.4926C6.12626 20.8188 6.72651 20.2834 7.482 20.0043C8.04864 19.795 8.76696 19.795 10.2036 19.795H13.9036M19.4536 21.17V6.04501M19.4536 6.04501L24.0786 10.17M19.4536 6.04501L14.8286 10.17" stroke="#BD8971" stroke-width="3" stroke-linecap="round" stroke-linejoin="round"/>
</svg>
