<svg width="29" height="29" viewBox="0 0 29 29" fill="none" xmlns="http://www.w3.org/2000/svg">
<g clip-path="url(#clip0_126_4267)">
<path fill-rule="evenodd" clip-rule="evenodd" d="M15.3023 3.81662C21.1013 3.81662 25.8023 8.51763 25.8023 14.3166C25.8023 20.1156 21.1013 24.8166 15.3023 24.8166C12.4546 24.8166 9.87158 23.6829 7.98009 21.8422L9.60729 20.1699C11.0784 21.6015 13.0874 22.4833 15.3023 22.4833C19.8127 22.4833 23.469 18.8269 23.469 14.3166C23.469 9.80629 19.8127 6.14995 15.3023 6.14995C10.792 6.14995 7.13567 9.80629 7.13567 14.3166C7.13567 14.5377 7.14446 14.7567 7.16169 14.9733L9.46901 12.6667L11.1189 14.3166L5.96901 19.4665L0.819092 14.3166L2.46901 12.6667L4.82572 15.0229C4.81022 14.7895 4.80234 14.554 4.80234 14.3166C4.80234 8.51763 9.50335 3.81662 15.3023 3.81662ZM13.497 10.7689L15.3134 15.6117L17.1297 10.7689H19.6219L16.5594 18.9355H14.0674L11.0049 10.7689H13.497Z" fill="#BD8971"/>
</g>
<defs>
<clipPath id="clip0_126_4267">
<rect width="28" height="28" fill="white" transform="translate(0.135742 0.31662)"/>
</clipPath>
</defs>
</svg>
