<?xml version="1.0" encoding="utf-8"?>
<svg viewBox="0.625 0.625 26.9792 26.9792" width="26.9792px" height="26.9792px" xmlns="http://www.w3.org/2000/svg"><path fill-rule="evenodd" clip-rule="evenodd" d="M19.8958 17.5833H18.6625L18.2 17.1208C19.7954 15.3423 20.6743 13.0351 20.6667 10.6458C20.6667 8.6639 20.079 6.72648 18.9779 5.07856C17.8768 3.43064 16.3117 2.14625 14.4806 1.3878C12.6496 0.629342 10.6347 0.430896 8.69087 0.817552C6.74702 1.20421 4.96148 2.1586 3.56004 3.56004C2.1586 4.96148 1.20421 6.74702 0.817552 8.69087C0.430896 10.6347 0.629342 12.6496 1.3878 14.4806C2.14625 16.3117 3.43064 17.8768 5.07856 18.9779C6.72648 20.079 8.6639 20.6667 10.6458 20.6667C13.0351 20.6743 15.3423 19.7954 17.1208 18.2L17.5833 18.6625V19.8958L25.2917 27.6042L27.6042 25.2917L19.8958 17.5833ZM10.6458 3.70834C12.22 3.70184 13.7491 4.23325 14.9799 5.21455C16.2107 6.19585 17.0694 7.56816 17.4138 9.10417H13.6675L12.0179 11.5708L8.6725 5.25L6.65292 9.10417H3.87792C4.22225 7.56816 5.08094 6.19585 6.31178 5.21455C7.54261 4.23325 9.07172 3.70184 10.6458 3.70834ZM10.6458 17.5833C8.93006 17.6009 7.2692 16.9791 5.98675 15.8391C4.70429 14.6992 3.89209 13.1227 3.70834 11.4167H8.05584L8.68792 10.2142L11.7713 16.0571L14.8546 11.4321H17.5833C17.3994 13.1367 16.5866 14.7115 15.3038 15.8489C14.0209 16.9863 12.3602 17.6047 10.6458 17.5833Z" style="fill: rgb(184, 128, 104);" id="object-0"/></svg>