<svg width="27" height="26" viewBox="0 0 27 26" fill="none" xmlns="http://www.w3.org/2000/svg">
<g clip-path="url(#clip0_126_4265)">
<path d="M22.2979 17.0956C21.4721 16.15 20.3448 15.6135 19.0799 15.6135H16.725V13.8737C17.2503 13.2887 17.6872 12.6266 18.0293 11.9628C18.7016 11.8535 19.3768 11.1833 19.7279 10.2264C20.1569 9.05666 19.9653 8.00683 19.2697 7.63023C19.562 6.11432 19.1314 4.30388 18.1098 2.93966C16.9742 1.42333 15.2187 0.588226 13.1628 0.588226C11.1069 0.588226 9.35038 1.42341 8.21487 2.93983C7.19649 4.29993 6.76194 6.10329 7.0489 7.61617C6.33184 7.97989 6.12148 9.04168 6.55586 10.2264C6.91872 11.2147 7.58264 11.8781 8.2737 11.9679C8.63551 12.6691 9.02131 13.3676 9.6341 13.9753V15.6135H7.25025C5.98526 15.6135 4.82874 16.15 4.00287 17.0956C3.23425 17.9759 2.80591 19.1568 2.80591 20.3928V22.7663C2.80591 23.0103 2.95569 23.2331 3.184 23.3398C6.85202 25.0563 10.3197 25.5882 13.2062 25.5881C14.7256 25.5881 16.0863 25.4407 17.2296 25.2411C20.8292 24.6127 23.0641 23.3708 23.1585 23.3182C23.3633 23.2042 23.4659 22.9938 23.4659 22.7662V20.3927C23.4658 19.1569 23.0667 17.9759 22.2979 17.0956ZM13.9237 19.8062C13.9237 20.0476 13.7202 20.2431 13.4693 20.2431H12.8023C12.5514 20.2431 12.348 20.0475 12.348 19.8062V19.1649C12.348 18.9236 12.5514 18.728 12.8023 18.728H13.4693C13.7203 18.728 13.9237 18.9237 13.9237 19.1649V19.8062ZM14.3498 17.6521C14.0988 17.5221 13.8118 17.4653 13.5066 17.4653H12.8232C12.5181 17.4653 12.231 17.5221 11.98 17.6521L10.8756 16.5847C10.9231 16.4968 10.9471 16.3886 10.9471 16.2827V15.1465C11.5599 15.5847 12.3377 15.8536 13.1352 15.8536C13.968 15.8536 14.7115 15.5594 15.4118 15.0861V16.2827C15.4118 16.3658 15.4553 16.4534 15.4852 16.5263L14.3498 17.6521ZM9.29269 3.68528C9.91476 2.85439 11.0916 1.86398 13.1649 1.86398C15.2383 1.86398 16.415 2.8543 17.0371 3.68511C18.005 4.97754 18.1801 6.52518 17.939 7.54875C13.5972 8.57005 11.5177 4.64917 11.432 4.48309C11.3052 4.23427 11.0268 4.09319 10.7406 4.13301C10.4554 4.17299 10.2297 4.3857 10.1819 4.65902C10.177 4.68671 9.7086 7.13663 8.3939 7.56095C8.14851 6.53789 8.32088 4.98292 9.29269 3.68528ZM7.67386 8.87324C9.50813 9.01264 10.6012 7.49176 11.0815 6.27535C11.3717 6.62669 11.7385 7.01483 12.184 7.38494C13.4665 8.4506 14.9463 8.99395 16.5322 8.99395C17.0958 8.99395 18.0284 8.92526 18.6149 8.78696C18.6543 8.95792 18.6657 9.33175 18.4933 9.80203C18.2945 10.344 18.0063 10.6175 17.8817 10.6883C17.7408 10.64 17.5857 10.6386 17.4427 10.6861C17.2686 10.7439 17.1274 10.8684 17.0527 11.0301C16.2961 12.6668 14.824 14.578 13.1649 14.578C11.5019 14.578 10.0287 12.661 9.27238 11.0195C9.19499 10.8516 9.04608 10.7238 8.86365 10.669C8.79895 10.6496 8.73225 10.64 8.6658 10.64C8.58062 10.64 8.49588 10.6558 8.41631 10.6869C8.29033 10.6137 8.00486 10.3402 7.80728 9.80212C7.65443 9.38503 7.64646 9.06087 7.67386 8.87324ZM4.11895 20.3928C4.11895 18.7095 5.2317 16.8761 7.25025 16.8761H9.36071L11.1241 18.5972C11.0688 18.7626 11.0348 18.9606 11.0348 19.1435V19.8007C11.0348 20.2796 11.2432 20.712 11.5727 21.0228L10.9843 24.1993C8.88991 23.987 6.57013 23.4473 4.11895 22.3635V20.3928ZM12.3315 24.2897L12.8378 21.5057H13.492L13.9991 24.2924C13.467 24.3113 12.9098 24.313 12.3315 24.2897ZM22.1526 22.3808C21.4523 22.7302 19.5465 23.5437 16.9229 23.9952C16.4286 24.0803 15.8998 24.1546 15.3251 24.21L14.7236 21.0229C15.053 20.7121 15.2367 20.2796 15.2367 19.8008V19.1436C15.2367 18.9607 15.2318 18.7626 15.1766 18.5973L16.9691 16.8762H19.0797C21.0981 16.8762 22.1525 18.7096 22.1525 20.3929V22.3808H22.1526Z" fill="#BD8971"/>
</g>
<defs>
<clipPath id="clip0_126_4265">
<rect width="26" height="25" fill="white" transform="translate(0.135742 0.588226)"/>
</clipPath>
</defs>
</svg>
