<svg id="Layer_1" data-name="Layer 1" xmlns="http://www.w3.org/2000/svg" viewBox="0 0 778.76 750.67"><defs><style>.cls-1{fill:#bd8971;}</style></defs><title>roles-menu</title><path class="cls-1" d="M739.75,449.17a56.94,56.94,0,0,1-.9-99l50.53-23.84L660.07,101l-46.75,27.11a57.26,57.26,0,0,1-85.74-49.45V26H272.42V79.93A57.26,57.26,0,0,1,215.16,137H215a57.36,57.36,0,0,1-28.3-7.58l-46.77-27.12L10.62,327.59l50.53,23.84a56.94,56.94,0,0,1-.9,99L12.67,477.52l127.9,222.83,46.73-27.1a57.26,57.26,0,0,1,85.76,49.45v54H528.23v-54a57.32,57.32,0,0,1,57.26-57h.17a57.34,57.34,0,0,1,28.3,7.58l46.76,27.12,127.5-222.12-47.45-28.47ZM458.69,706H342.59a128.12,128.12,0,0,0-61.14-93V584.89a118.55,118.55,0,0,1,237.1,0V614A128.14,128.14,0,0,0,458.69,706ZM400,395.37a56.94,56.94,0,1,1,56.94-56.94A57,57,0,0,1,400,395.37ZM634.2,604.64a128.16,128.16,0,0,0-45-9.59V584.89a189.28,189.28,0,0,0-92.94-162.82,127.58,127.58,0,1,0-192.53,0A189.28,189.28,0,0,0,210.8,584.89v10.17a126.61,126.61,0,0,0-43.72,9.56L108.77,503a127.46,127.46,0,0,0,35.35-40.38,127.63,127.63,0,0,0-35.27-164.28L166.45,198a128.14,128.14,0,0,0,48.34,9.64h.38A128,128,0,0,0,342,96.65H458.24a128.13,128.13,0,0,0,15.71,45.56c32.32,56.25,101.2,78.66,159.61,54.55l57.6,100.35a127.47,127.47,0,0,0-35.28,40.33c-31.69,57-14.87,128.09,36.77,165.37Z" transform="translate(-10.62 -26)"/></svg>