<?xml version="1.0" encoding="utf-8"?>
<!-- Generator: Adobe Illustrator 21.1.0, SVG Export Plug-In . SVG Version: 6.00 Build 0)  -->
<svg version="1.1" id="Layer_1" xmlns="http://www.w3.org/2000/svg" xmlns:xlink="http://www.w3.org/1999/xlink" x="0px" y="0px"
	 viewBox="0 0 512 512" style="enable-background:new 0 0 512 512;" xml:space="preserve">
<style type="text/css">
	.st0{fill:#BD8971;}
</style>
<g>
	<g>
		<path class="st0" d="M438.4,0H73.6v461.4h216V512l41.3-16.1l41.3,16.1v-50.6h66.2L438.4,0L438.4,0z M320,467.5v-6.2v-21.3
			c0.3,0.1,0.7,0.1,1,0.2s0.7,0.1,1,0.2c0.6,0.1,1.2,0.2,1.8,0.2c0.4,0,0.8,0.1,1.2,0.1c0.5,0,1,0.1,1.5,0.1c0.5,0,1,0.1,1.4,0.1
			c0.4,0,0.9,0,1.3,0c0.5,0,1,0,1.5,0c0.5,0,1,0,1.5,0c0.4,0,0.9,0,1.3,0c0.5,0,1-0.1,1.4-0.1c0.5,0,1-0.1,1.5-0.1
			c0.4,0,0.8-0.1,1.2-0.1c0.6-0.1,1.2-0.1,1.8-0.2c0.3,0,0.7-0.1,1-0.2c0.3-0.1,0.7-0.1,1-0.2v21.3v6.2l-10.9-4.2L320,467.5z
			 M348.1,405.3c-0.5,0.4-1.1,0.7-1.6,1c-0.2,0.1-0.3,0.2-0.5,0.3c-0.4,0.3-0.9,0.5-1.4,0.7c-0.2,0.1-0.3,0.2-0.5,0.2
			c-0.6,0.3-1.1,0.5-1.7,0.8c-0.2,0.1-0.4,0.2-0.6,0.3c-0.5,0.2-1,0.4-1.5,0.5c-0.1,0-0.3,0.1-0.4,0.1c-0.6,0.2-1.2,0.3-1.8,0.5
			c-0.2,0-0.4,0.1-0.6,0.1c-0.6,0.1-1.2,0.3-1.9,0.4c-0.1,0-0.1,0-0.2,0c-0.6,0.1-1.3,0.2-1.9,0.2c-0.2,0-0.4,0-0.5,0
			c-0.7,0-1.4,0.1-2.1,0.1s-1.4,0-2.1-0.1c-0.2,0-0.4,0-0.5,0c-0.7-0.1-1.3-0.1-1.9-0.2c-0.1,0-0.1,0-0.2,0
			c-0.6-0.1-1.2-0.2-1.9-0.4c-0.2,0-0.4-0.1-0.6-0.1c-0.6-0.1-1.2-0.3-1.8-0.5c-0.2,0-0.3-0.1-0.5-0.1c-0.5-0.2-1-0.3-1.5-0.5
			c-0.2-0.1-0.4-0.2-0.6-0.3c-0.6-0.2-1.1-0.5-1.7-0.8c-0.2-0.1-0.3-0.2-0.5-0.2c-0.5-0.2-0.9-0.5-1.4-0.7c-0.2-0.1-0.4-0.2-0.5-0.3
			c-0.5-0.3-1.1-0.7-1.6-1c-8-5.5-13.3-14.7-13.3-25.1c0-16.8,13.7-30.5,30.5-30.5s30.5,13.7,30.5,30.5
			C361.4,390.6,356.1,399.8,348.1,405.3z M372.2,431v-6.1c12-11.1,19.6-27,19.6-44.7c0-33.6-27.3-60.9-60.9-60.9
			S270,346.6,270,380.2c0,17.7,7.6,33.6,19.6,44.7v6.1H104V30.4h304V431H372.2z"/>
	</g>
</g>
<g>
	<g>
		<rect x="135.6" y="365" class="st0" width="102.8" height="30.4"/>
	</g>
</g>
<g>
	<g>
		<rect x="135.6" y="268.6" class="st0" width="240.8" height="30.4"/>
	</g>
</g>
<g>
	<g>
		<rect x="135.6" y="217.9" class="st0" width="240.8" height="30.4"/>
	</g>
</g>
<g>
	<g>
		<rect x="135.6" y="167.2" class="st0" width="240.8" height="30.4"/>
	</g>
</g>
<g>
	<g>
		<rect x="135.6" y="116.5" class="st0" width="240.8" height="30.4"/>
	</g>
</g>
<g>
	<g>
		<rect x="192.9" y="65.8" class="st0" width="126.2" height="30.4"/>
	</g>
</g>
</svg>
