<svg width="32" height="32" viewBox="0 0 32 32" fill="none" xmlns="http://www.w3.org/2000/svg">
<path d="M17.0584 13.1345C17.0584 12.5995 16.6247 12.1658 16.0897 12.1658C15.5547 12.1658 15.1209 12.5995 15.1209 13.1345V14.0403L14.3364 13.5873C13.8731 13.3198 13.2806 13.4785 13.0131 13.9418C12.7456 14.4051 12.9043 14.9976 13.3676 15.2651L14.1515 15.7177L13.3674 16.1706C12.904 16.4381 12.7452 17.0306 13.0128 17.4939C13.2803 17.9572 13.8728 18.116 14.3361 17.8485L15.1209 17.3954V18.3012C15.1209 18.8362 15.5547 19.27 16.0897 19.27C16.6247 19.27 17.0584 18.8362 17.0584 18.3012V17.3961L17.8421 17.8485C18.3054 18.116 18.8979 17.9572 19.1654 17.4939C19.4329 17.0306 19.2742 16.4381 18.8108 16.1706L18.0265 15.7177L18.8106 15.2651C19.2739 14.9976 19.4327 14.4051 19.1652 13.9418C18.8976 13.4785 18.3052 13.3198 17.8418 13.5873L17.0584 14.0395V13.1345Z" fill="#BD8971"/>
<path d="M9.28578 12.1658C9.82081 12.1658 10.2545 12.5995 10.2545 13.1345V14.0395L11.0379 13.5873C11.5012 13.3198 12.0937 13.4785 12.3612 13.9418C12.6287 14.4051 12.4699 14.9976 12.0066 15.2651L11.2227 15.7177L12.0069 16.1706C12.4703 16.4381 12.629 17.0306 12.3615 17.4939C12.094 17.9572 11.5015 18.116 11.0382 17.8485L10.2545 17.3961V18.3012C10.2545 18.8362 9.82081 19.27 9.28578 19.27C8.75075 19.27 8.31703 18.8362 8.31703 18.3012V17.3954L7.53214 17.8485C7.06879 18.116 6.47632 17.9572 6.2088 17.4939C5.9413 17.0306 6.10004 16.4381 6.56339 16.1706L7.34765 15.7177L6.5637 15.2651C6.10035 14.9976 5.9416 14.4051 6.20911 13.9418C6.47662 13.4785 7.0691 13.3198 7.53245 13.5873L8.31703 14.0403V13.1345C8.31703 12.5995 8.75075 12.1658 9.28578 12.1658Z" fill="#BD8971"/>
<path d="M23.8627 13.1345C23.8627 12.5995 23.429 12.1658 22.894 12.1658C22.359 12.1658 21.9252 12.5995 21.9252 13.1345V14.0403L21.1405 13.5873C20.6772 13.3198 20.0847 13.4785 19.8172 13.9418C19.5497 14.4051 19.7085 14.9976 20.1718 15.2651L20.9558 15.7177L20.1715 16.1706C19.7082 16.4381 19.5495 17.0306 19.817 17.4939C20.0845 17.9572 20.677 18.116 21.1403 17.8485L21.9252 17.3954V18.3012C21.9252 18.8362 22.359 19.27 22.894 19.27C23.429 19.27 23.8627 18.8362 23.8627 18.3012V17.3961L24.6462 17.8485C25.1097 18.116 25.7022 17.9572 25.9697 17.4939C26.2372 17.0306 26.0784 16.4381 25.615 16.1706L24.8308 15.7177L25.6147 15.2651C26.0781 14.9976 26.2368 14.4051 25.9693 13.9418C25.7018 13.4785 25.1093 13.3198 24.646 13.5873L23.8627 14.0395V13.1345Z" fill="#BD8971"/>
<path fill-rule="evenodd" clip-rule="evenodd" d="M13.4331 4.41579C11.0593 4.41576 9.1791 4.41575 7.70762 4.61359C6.19325 4.81719 4.96752 5.24617 4.00088 6.21281C3.03424 7.17945 2.60526 8.40518 2.40166 9.91955C2.20382 11.391 2.20383 13.2712 2.20386 15.645V15.7907C2.20383 18.1645 2.20382 20.0447 2.40166 21.5162C2.60526 23.0305 3.03424 24.2563 4.00088 25.223C4.96752 26.1895 6.19325 26.6185 7.70762 26.8222C9.17909 27.02 11.0593 27.02 13.433 27.02H18.7455C21.1193 27.02 22.9994 27.02 24.4709 26.8222C25.9852 26.6185 27.211 26.1895 28.1777 25.223C29.1443 24.2563 29.5732 23.0305 29.7769 21.5162C29.9747 20.0447 29.9747 18.1645 29.9747 15.7908V15.645C29.9747 13.2713 29.9747 11.391 29.7769 9.91955C29.5732 8.40518 29.1443 7.17945 28.1777 6.21281C27.211 5.24617 25.9852 4.81719 24.4709 4.61359C22.9994 4.41575 21.1193 4.41576 18.7455 4.41579H13.4331ZM5.3709 7.58282C5.91754 7.03618 6.66626 6.70853 7.96579 6.53381C9.29318 6.35534 11.043 6.35329 13.5059 6.35329H18.6726C21.1356 6.35329 22.8854 6.35534 24.2128 6.53381C25.5122 6.70853 26.261 7.03618 26.8076 7.58282C27.3543 8.12947 27.682 8.87819 27.8566 10.1777C28.0351 11.5051 28.0372 13.2549 28.0372 15.7179C28.0372 18.1808 28.0351 19.9306 27.8566 21.2581C27.682 22.5575 27.3543 23.3063 26.8076 23.8529C26.261 24.3995 25.5122 24.7272 24.2128 24.9019C22.8854 25.0804 21.1356 25.0825 18.6726 25.0825H13.5059C11.043 25.0825 9.29318 25.0804 7.96579 24.9019C6.66626 24.7272 5.91754 24.3995 5.3709 23.8529C4.82425 23.3063 4.4966 22.5575 4.32188 21.2581C4.14341 19.9306 4.14136 18.1808 4.14136 15.7179C4.14136 13.2549 4.14341 11.5051 4.32188 10.1777C4.4966 8.87819 4.82425 8.12947 5.3709 7.58282Z" fill="#BD8971"/>
</svg>
