<svg width="28" height="28" viewBox="0 0 28 28" fill="none" xmlns="http://www.w3.org/2000/svg">
<path fill-rule="evenodd" clip-rule="evenodd" d="M1.7146 5.12527C1.7146 3.26132 3.22564 1.75027 5.0896 1.75027H9.32402C10.6024 1.75027 11.771 2.47254 12.3427 3.61593L13.3489 5.62839C13.5395 6.00952 13.9291 6.25027 14.3552 6.25027H23.0896C24.9536 6.25027 26.4646 7.76132 26.4646 9.62527V23.1253C26.4646 24.9893 24.9536 26.5003 23.0896 26.5003H5.0896C3.22564 26.5003 1.7146 24.9893 1.7146 23.1253V5.12527ZM5.0896 4.00027C4.46828 4.00027 3.9646 4.50396 3.9646 5.12527V23.1253C3.9646 23.7466 4.46828 24.2503 5.0896 24.2503H23.0896C23.7109 24.2503 24.2146 23.7466 24.2146 23.1253V9.62527C24.2146 9.00396 23.7109 8.50027 23.0896 8.50027H14.3552C13.0769 8.50027 11.9082 7.77801 11.3365 6.63462L10.3303 4.62216C10.1397 4.24102 9.75014 4.00027 9.32402 4.00027H5.0896Z" fill="#BD8971"/>
<path fill-rule="evenodd" clip-rule="evenodd" d="M10.6716 15.2511C10.6714 15.2422 10.6712 15.2333 10.671 15.2243C10.6609 14.8039 10.6795 14.2166 10.8099 13.6083C10.9381 13.0097 11.1941 12.2989 11.7271 11.725C12.2938 11.1148 13.0901 10.7503 14.0896 10.7503C15.089 10.7503 15.8854 11.1148 16.4521 11.725C16.985 12.2989 17.2411 13.0097 17.3693 13.6083C17.4997 14.2166 17.5183 14.804 17.5082 15.2243C17.508 15.2333 17.5078 15.2422 17.5076 15.2511C18.109 15.2737 18.5896 15.7683 18.5896 16.3753V20.8753C18.5896 21.4966 18.0859 22.0003 17.4646 22.0003H10.7146C10.0933 22.0003 9.5896 21.4966 9.5896 20.8753V16.3753C9.5896 15.7683 10.0702 15.2737 10.6716 15.2511ZM15.2564 15.2503C15.2573 15.2246 15.2582 15.1982 15.2588 15.1707C15.2665 14.8528 15.2498 14.4558 15.1693 14.0797C15.0866 13.6939 14.9558 13.4203 14.8033 13.256C14.6844 13.128 14.4964 13.0003 14.0896 13.0003C13.6828 13.0003 13.4948 13.128 13.3759 13.256C13.2233 13.4203 13.0926 13.6939 13.0099 14.0797C12.9294 14.4558 12.9127 14.8529 12.9203 15.1707C12.9209 15.1982 12.9218 15.2246 12.9227 15.2503H15.2564Z" fill="#BD8971"/>
</svg>
