<svg width="26" height="27" viewBox="0 0 26 27" fill="none" xmlns="http://www.w3.org/2000/svg">
<g clip-path="url(#clip0_126_4048)">
<path d="M20.1618 4.23304H6.79181C6.3305 4.23012 5.87728 4.35433 5.48191 4.59204C5.08654 4.82975 4.76429 5.17178 4.55053 5.58059C4.33676 5.9894 4.23973 6.4492 4.27009 6.90953C4.30046 7.36986 4.45704 7.81293 4.72265 8.19012C4.98827 8.56731 5.35265 8.86405 5.77582 9.04777C6.19898 9.23149 6.66458 9.29509 7.12152 9.2316C7.57846 9.1681 8.00908 8.97997 8.36613 8.68784C8.72317 8.3957 8.99285 8.01086 9.14556 7.57554H17.8518C18.0058 8.00761 18.2755 8.38905 18.6316 8.67819C18.9876 8.96733 19.4163 9.15306 19.8708 9.21507C20.3253 9.27708 20.788 9.21299 21.2085 9.02981C21.6291 8.84663 21.9911 8.5514 22.2552 8.17638C22.5193 7.80135 22.6752 7.36096 22.706 6.90332C22.7367 6.44567 22.6411 5.98838 22.4296 5.5814C22.218 5.17441 21.8987 4.8334 21.5065 4.59561C21.1143 4.35781 20.6642 4.23239 20.2056 4.23304H20.1618Z" stroke="#BD8971" stroke-width="2" stroke-miterlimit="10"/>
<path d="M17.7993 7.57555H9.1543" stroke="#BD8971" stroke-width="2" stroke-miterlimit="10"/>
<path d="M18.4905 23.448V8.5993" stroke="#BD8971" stroke-width="2" stroke-miterlimit="10"/>
<path d="M8.46313 23.448V8.5993" stroke="#BD8971" stroke-width="2" stroke-miterlimit="10"/>
<path d="M11.8057 10.918V23.448" stroke="#BD8971" stroke-width="2" stroke-miterlimit="10"/>
<path d="M15.1479 10.918V23.448" stroke="#BD8971" stroke-width="2" stroke-miterlimit="10"/>
</g>
<defs>
<clipPath id="clip0_126_4048">
<rect width="21" height="21" fill="white" transform="translate(2.97681 2.90305)"/>
</clipPath>
</defs>
</svg>
